<svg version="1.1" xmlns="http://www.w3.org/2000/svg" style="display:none;">

    <symbol id="CircleArrow-R" viewBox="0 0 1024 1024">
        <path d="M510.247 959.053c238.627 0 432.77-196.2 432.77-437.351 0-241.153-194.143-437.353-432.77-437.353-238.627 0-432.772 196.202-432.772 437.353 0 241.15 194.143 437.351 432.772 437.351zm0-820.035c208.804 0 378.675 171.665 378.675 382.684 0 211.013-169.871 382.68-378.675 382.68S131.57 732.715 131.57 521.702c0-211.02 169.871-382.684 378.677-382.684zM293.862 549.035h367.472L545.218 666.38c-10.563 10.677-10.563 27.976 0 38.654a26.849 26.849 0 0 0 38.251 0l162.288-164.01c10.567-10.675 10.567-27.975 0-38.651L583.469 338.361c-5.283-5.337-12.205-8.004-19.124-8.004-6.924 0-13.841 2.667-19.127 8.004-10.563 10.679-10.563 27.974 0 38.654l116.116 117.35H293.862c-14.953 0-27.047 12.225-27.047 27.336 0 15.107 12.092 27.333 27.047 27.333z" fill="#707070"/>
    </symbol>
    <symbol id="CircleArrow-L" viewBox="0 0 1024 1024">
        <path d="M513.753 64.947c-238.627 0-432.77 196.2-432.77 437.351 0 241.153 194.143 437.353 432.77 437.353 238.627 0 432.772-196.202 432.772-437.353 0-241.15-194.143-437.351-432.772-437.351zm0 820.035c-208.804 0-378.675-171.665-378.675-382.684 0-211.013 169.871-382.68 378.675-382.68S892.43 291.285 892.43 502.298c0 211.02-169.871 382.684-378.677 382.684zm216.385-410.017H362.666L478.782 357.62c10.563-10.677 10.563-27.976 0-38.654a26.849 26.849 0 0 0-38.251 0l-162.288 164.01c-10.567 10.675-10.567 27.975 0 38.651l162.288 164.012c5.283 5.337 12.205 8.004 19.124 8.004 6.924 0 13.841-2.667 19.127-8.004 10.563-10.679 10.563-27.974 0-38.654l-116.116-117.35h367.472c14.953 0 27.047-12.225 27.047-27.336 0-15.107-12.092-27.333-27.047-27.333z" fill="#707070" data-spm-anchor-id="a313x.7781069.0.i1" class="selected"/>
    </symbol>
    <symbol id="AngleBracket-R" viewBox="0 0 1024 1024">
        <path d="M318.73 836.321a20.419 20.419 0 0 0 28.959 0l307.2-307.2a20.46 20.46 0 0 0 0-28.958l-307.2-307.2a20.46 20.46 0 1 0-28.959 28.958l292.72 292.72-292.72 292.722a20.46 20.46 0 0 0 0 28.958z" fill="#707070"/>
    </symbol>
    <symbol id="Folder" viewBox="0 0 1024 1024">
        <path d="M426.667 170.667h-256A85.038 85.038 0 0 0 85.333 256v512a85.333 85.333 0 0 0 85.334 85.333h682.666A85.333 85.333 0 0 0 938.667 768V341.333A85.333 85.333 0 0 0 853.333 256H512l-85.333-85.333z" fill="#707070"/>
    </symbol>
    <symbol id="Url" viewBox="0 0 1024 1024">
        <path d="M682.667 256h-128v81.067h128A174.933 174.933 0 0 1 857.6 512a174.933 174.933 0 0 1-174.933 174.933h-128V768h128a256 256 0 0 0 256-256c0-141.653-114.774-256-256-256M166.4 512a174.933 174.933 0 0 1 174.933-174.933h128V256h-128a256 256 0 0 0-256 256 256 256 0 0 0 256 256h128v-81.067h-128C244.907 686.933 166.4 608.427 166.4 512m174.933 42.667h341.334v-85.334H341.333v85.334z" fill="#42A5F5"/>
    </symbol>
    <symbol id="Unknown" viewBox="0 0 1024 1024">
        <path d="M554.667 384h234.666L554.667 149.333V384M256 85.333h341.333l256 256v512A85.333 85.333 0 0 1 768 938.667H256a85.333 85.333 0 0 1-85.333-85.334V170.667A85.038 85.038 0 0 1 256 85.333m213.333 85.334H256v682.666h512v-384H469.333V170.667z" fill="#42A5F5"/>
    </symbol>
    <symbol id="Warning" viewBox="0 0 1024 1024">
        <path d="M522.656 388.064a32 32 0 0 0-32 32v160a32 32 0 0 0 64 0v-160a32 32 0 0 0-32-32M522.656 676.064a32 32 0 1 0 0 64 32 32 0 0 0 0-64"/>
        <path d="M714.656 795.616H203.072l127.584-221.888 33.152-57.664 158.848-276.224 158.816 276.224 33.184 57.696 127.552 221.856h-127.552z m194.528-11.968L566.528 187.712c-10.144-17.6-26.112-27.712-43.872-27.712s-33.728 10.112-43.84 27.712L136.096 783.648c-10.048 17.568-10.784 36.48-1.92 51.84 8.896 15.328 25.6 24.128 45.824 24.128H865.344c20.16 0 36.864-8.8 45.76-24.128 8.896-15.36 8.192-34.24-1.92-51.84z"/>
    </symbol>
    <symbol id="Download" viewBox="0 0 1024 1024">
        <path d="M704 341.333333h64a64 64 0 0 1 64 64v362.666667a64 64 0 0 1-64 64H256a64 64 0 0 1-64-64V405.333333a64 64 0 0 1 64-64h64v64h-64v362.666667h512V405.333333h-64v-64z m-154.794667-212.266666l0.042667 347.456 74.005333-74.026667 45.226667 45.248-150.826667 150.848-150.848-150.826667 45.248-45.269333 73.173334 73.173333V129.066667h64z" fill="#515151"/>
    </symbol>


    <symbol id=".c" viewBox="0 0 1024 1024">
        <path d="M701.867 681.387l17.92 104.106c-11.094 5.974-29.014 11.52-52.907 16.64-24.32 5.547-52.907 8.534-85.76 8.534C486.827 808.96 416 780.8 368.64 727.04c-48.64-54.187-71.68-122.88-71.68-206.08 1.707-98.56 30.72-174.08 87.04-226.987 54.613-53.333 124.587-80.64 209.067-80.64 32 0 59.733 2.987 82.773 8.107s40.107 10.667 51.2 17.067l-25.6 106.24-44.373-14.507c-17.067-4.267-37.12-6.4-59.734-6.4-49.066-.427-90.026 15.36-122.026 46.933-32.427 31.147-48.64 78.934-50.347 142.507.427 58.027 15.787 103.253 46.08 136.533 30.293 32.854 72.533 49.92 127.573 50.347l56.747-5.12c18.347-3.413 33.707-8.107 46.507-13.653z" fill="#0277BD"/>
    </symbol>
    <symbol id=".i" viewBox="0 0 1024 1024">
        <path d="M701.867 681.387l17.92 104.106c-11.094 5.974-29.014 11.52-52.907 16.64-24.32 5.547-52.907 8.534-85.76 8.534C486.827 808.96 416 780.8 368.64 727.04c-48.64-54.187-71.68-122.88-71.68-206.08 1.707-98.56 30.72-174.08 87.04-226.987 54.613-53.333 124.587-80.64 209.067-80.64 32 0 59.733 2.987 82.773 8.107s40.107 10.667 51.2 17.067l-25.6 106.24-44.373-14.507c-17.067-4.267-37.12-6.4-59.734-6.4-49.066-.427-90.026 15.36-122.026 46.933-32.427 31.147-48.64 78.934-50.347 142.507.427 58.027 15.787 103.253 46.08 136.533 30.293 32.854 72.533 49.92 127.573 50.347l56.747-5.12c18.347-3.413 33.707-8.107 46.507-13.653z" fill="#0277BD"/>
    </symbol>
    <symbol id=".s" viewBox="0 0 1024 1024">
        <path d="M701.867 681.387l17.92 104.106c-11.094 5.974-29.014 11.52-52.907 16.64-24.32 5.547-52.907 8.534-85.76 8.534C486.827 808.96 416 780.8 368.64 727.04c-48.64-54.187-71.68-122.88-71.68-206.08 1.707-98.56 30.72-174.08 87.04-226.987 54.613-53.333 124.587-80.64 209.067-80.64 32 0 59.733 2.987 82.773 8.107s40.107 10.667 51.2 17.067l-25.6 106.24-44.373-14.507c-17.067-4.267-37.12-6.4-59.734-6.4-49.066-.427-90.026 15.36-122.026 46.933-32.427 31.147-48.64 78.934-50.347 142.507.427 58.027 15.787 103.253 46.08 136.533 30.293 32.854 72.533 49.92 127.573 50.347l56.747-5.12c18.347-3.413 33.707-8.107 46.507-13.653z" fill="#0277BD"/>
    </symbol>
    <symbol id=".o" viewBox="0 0 1024 1024">
        <path d="M701.867 681.387l17.92 104.106c-11.094 5.974-29.014 11.52-52.907 16.64-24.32 5.547-52.907 8.534-85.76 8.534C486.827 808.96 416 780.8 368.64 727.04c-48.64-54.187-71.68-122.88-71.68-206.08 1.707-98.56 30.72-174.08 87.04-226.987 54.613-53.333 124.587-80.64 209.067-80.64 32 0 59.733 2.987 82.773 8.107s40.107 10.667 51.2 17.067l-25.6 106.24-44.373-14.507c-17.067-4.267-37.12-6.4-59.734-6.4-49.066-.427-90.026 15.36-122.026 46.933-32.427 31.147-48.64 78.934-50.347 142.507.427 58.027 15.787 103.253 46.08 136.533 30.293 32.854 72.533 49.92 127.573 50.347l56.747-5.12c18.347-3.413 33.707-8.107 46.507-13.653z" fill="#0277BD"/>
    </symbol>
    <symbol id=".out" viewBox="0 0 1024 1024">
        <path d="M701.867 681.387l17.92 104.106c-11.094 5.974-29.014 11.52-52.907 16.64-24.32 5.547-52.907 8.534-85.76 8.534C486.827 808.96 416 780.8 368.64 727.04c-48.64-54.187-71.68-122.88-71.68-206.08 1.707-98.56 30.72-174.08 87.04-226.987 54.613-53.333 124.587-80.64 209.067-80.64 32 0 59.733 2.987 82.773 8.107s40.107 10.667 51.2 17.067l-25.6 106.24-44.373-14.507c-17.067-4.267-37.12-6.4-59.734-6.4-49.066-.427-90.026 15.36-122.026 46.933-32.427 31.147-48.64 78.934-50.347 142.507.427 58.027 15.787 103.253 46.08 136.533 30.293 32.854 72.533 49.92 127.573 50.347l56.747-5.12c18.347-3.413 33.707-8.107 46.507-13.653z" fill="#0277BD"/>
    </symbol>
    <symbol id=".cxx" viewBox="0 0 1024 1024">
        <path d="M426.667 681.387l17.493 104.106c-11.093 5.974-29.013 11.52-52.907 16.64-24.32 5.547-52.906 8.534-85.76 8.534-94.293-1.707-165.12-29.867-212.48-83.627-47.786-54.187-71.68-122.88-71.68-206.08 2.134-98.56 30.72-174.08 85.334-226.987 56.32-53.333 126.293-80.64 210.773-80.64 32 0 59.733 2.987 82.773 8.107s40.107 10.667 51.2 17.067l-24.746 106.24-45.227-14.507c-17.067-4.267-36.693-6.4-59.307-6.4-49.493-.427-90.453 15.36-122.453 46.933-32.427 31.147-49.067 78.934-50.347 142.507 0 58.027 15.787 103.253 46.08 136.533 30.294 32.854 72.96 49.92 127.574 50.347l56.746-5.12c18.347-3.413 33.707-8.107 46.934-13.653M448 469.333h85.333V384h85.334v85.333H704v85.334h-85.333V640h-85.334v-85.333H448v-85.334m298.667 0H832V384h85.333v85.333h85.334v85.334h-85.334V640H832v-85.333h-85.333z" fill="#0277BD"/>
    </symbol>
    <symbol id=".cc" viewBox="0 0 1024 1024">
        <path d="M426.667 681.387l17.493 104.106c-11.093 5.974-29.013 11.52-52.907 16.64-24.32 5.547-52.906 8.534-85.76 8.534-94.293-1.707-165.12-29.867-212.48-83.627-47.786-54.187-71.68-122.88-71.68-206.08 2.134-98.56 30.72-174.08 85.334-226.987 56.32-53.333 126.293-80.64 210.773-80.64 32 0 59.733 2.987 82.773 8.107s40.107 10.667 51.2 17.067l-24.746 106.24-45.227-14.507c-17.067-4.267-36.693-6.4-59.307-6.4-49.493-.427-90.453 15.36-122.453 46.933-32.427 31.147-49.067 78.934-50.347 142.507 0 58.027 15.787 103.253 46.08 136.533 30.294 32.854 72.96 49.92 127.574 50.347l56.746-5.12c18.347-3.413 33.707-8.107 46.934-13.653M448 469.333h85.333V384h85.334v85.333H704v85.334h-85.333V640h-85.334v-85.333H448v-85.334m298.667 0H832V384h85.333v85.333h85.334v85.334h-85.334V640H832v-85.333h-85.333z" fill="#0277BD"/>
    </symbol>
    <symbol id=".c++" viewBox="0 0 1024 1024">
        <path d="M426.667 681.387l17.493 104.106c-11.093 5.974-29.013 11.52-52.907 16.64-24.32 5.547-52.906 8.534-85.76 8.534-94.293-1.707-165.12-29.867-212.48-83.627-47.786-54.187-71.68-122.88-71.68-206.08 2.134-98.56 30.72-174.08 85.334-226.987 56.32-53.333 126.293-80.64 210.773-80.64 32 0 59.733 2.987 82.773 8.107s40.107 10.667 51.2 17.067l-24.746 106.24-45.227-14.507c-17.067-4.267-36.693-6.4-59.307-6.4-49.493-.427-90.453 15.36-122.453 46.933-32.427 31.147-49.067 78.934-50.347 142.507 0 58.027 15.787 103.253 46.08 136.533 30.294 32.854 72.96 49.92 127.574 50.347l56.746-5.12c18.347-3.413 33.707-8.107 46.934-13.653M448 469.333h85.333V384h85.334v85.333H704v85.334h-85.333V640h-85.334v-85.333H448v-85.334m298.667 0H832V384h85.333v85.333h85.334v85.334h-85.334V640H832v-85.333h-85.333z" fill="#0277BD"/>
    </symbol>
    <symbol id=".C" viewBox="0 0 1024 1024">
        <path d="M426.667 681.387l17.493 104.106c-11.093 5.974-29.013 11.52-52.907 16.64-24.32 5.547-52.906 8.534-85.76 8.534-94.293-1.707-165.12-29.867-212.48-83.627-47.786-54.187-71.68-122.88-71.68-206.08 2.134-98.56 30.72-174.08 85.334-226.987 56.32-53.333 126.293-80.64 210.773-80.64 32 0 59.733 2.987 82.773 8.107s40.107 10.667 51.2 17.067l-24.746 106.24-45.227-14.507c-17.067-4.267-36.693-6.4-59.307-6.4-49.493-.427-90.453 15.36-122.453 46.933-32.427 31.147-49.067 78.934-50.347 142.507 0 58.027 15.787 103.253 46.08 136.533 30.294 32.854 72.96 49.92 127.574 50.347l56.746-5.12c18.347-3.413 33.707-8.107 46.934-13.653M448 469.333h85.333V384h85.334v85.333H704v85.334h-85.333V640h-85.334v-85.333H448v-85.334m298.667 0H832V384h85.333v85.333h85.334v85.334h-85.334V640H832v-85.333h-85.333z" fill="#0277BD"/>
    </symbol>
    <symbol id=".cpp" viewBox="0 0 1024 1024">
        <path d="M426.667 681.387l17.493 104.106c-11.093 5.974-29.013 11.52-52.907 16.64-24.32 5.547-52.906 8.534-85.76 8.534-94.293-1.707-165.12-29.867-212.48-83.627-47.786-54.187-71.68-122.88-71.68-206.08 2.134-98.56 30.72-174.08 85.334-226.987 56.32-53.333 126.293-80.64 210.773-80.64 32 0 59.733 2.987 82.773 8.107s40.107 10.667 51.2 17.067l-24.746 106.24-45.227-14.507c-17.067-4.267-36.693-6.4-59.307-6.4-49.493-.427-90.453 15.36-122.453 46.933-32.427 31.147-49.067 78.934-50.347 142.507 0 58.027 15.787 103.253 46.08 136.533 30.294 32.854 72.96 49.92 127.574 50.347l56.746-5.12c18.347-3.413 33.707-8.107 46.934-13.653M448 469.333h85.333V384h85.334v85.333H704v85.334h-85.333V640h-85.334v-85.333H448v-85.334m298.667 0H832V384h85.333v85.333h85.334v85.334h-85.334V640H832v-85.333h-85.333z" fill="#0277BD"/>
    </symbol>
    <symbol id=".inl" viewBox="0 0 1024 1024">
        <path d="M426.667 681.387l17.493 104.106c-11.093 5.974-29.013 11.52-52.907 16.64-24.32 5.547-52.906 8.534-85.76 8.534-94.293-1.707-165.12-29.867-212.48-83.627-47.786-54.187-71.68-122.88-71.68-206.08 2.134-98.56 30.72-174.08 85.334-226.987 56.32-53.333 126.293-80.64 210.773-80.64 32 0 59.733 2.987 82.773 8.107s40.107 10.667 51.2 17.067l-24.746 106.24-45.227-14.507c-17.067-4.267-36.693-6.4-59.307-6.4-49.493-.427-90.453 15.36-122.453 46.933-32.427 31.147-49.067 78.934-50.347 142.507 0 58.027 15.787 103.253 46.08 136.533 30.294 32.854 72.96 49.92 127.574 50.347l56.746-5.12c18.347-3.413 33.707-8.107 46.934-13.653M448 469.333h85.333V384h85.334v85.333H704v85.334h-85.333V640h-85.334v-85.333H448v-85.334m298.667 0H832V384h85.333v85.333h85.334v85.334h-85.334V640H832v-85.333h-85.333z" fill="#0277BD"/>
    </symbol>
    <symbol id=".hpp" viewBox="0 0 1027 1024">
        <path d="M416.299 845.568H288.043V594.603q0-101.59-74.112-101.59-37.035 0-61.355 28.288-23.893 28.246-23.893 73.302v250.965H0v-652.16h128.683v277.675h1.578q50.646-76.886 136.278-76.886 149.76 0 149.76 180.864zM557.781 488.448v85.333h-85.333v85.334h85.333v85.333h85.334v-85.333h85.333V573.78h-85.333v-85.333zm298.667 0v85.333h-85.333v85.334h85.333v85.333h85.333v-85.333h85.334V573.78H941.78v-85.333z" fill="#0277BD"/>
    </symbol>
    <symbol id=".hxx" viewBox="0 0 1027 1024">
        <path d="M416.299 845.568H288.043V594.603q0-101.59-74.112-101.59-37.035 0-61.355 28.288-23.893 28.246-23.893 73.302v250.965H0v-652.16h128.683v277.675h1.578q50.646-76.886 136.278-76.886 149.76 0 149.76 180.864zM557.781 488.448v85.333h-85.333v85.334h85.333v85.333h85.334v-85.333h85.333V573.78h-85.333v-85.333zm298.667 0v85.333h-85.333v85.334h85.333v85.333h85.333v-85.333h85.334V573.78H941.78v-85.333z" fill="#0277BD"/>
    </symbol>
    <symbol id=".h++" viewBox="0 0 1027 1024">
        <path d="M416.299 845.568H288.043V594.603q0-101.59-74.112-101.59-37.035 0-61.355 28.288-23.893 28.246-23.893 73.302v250.965H0v-652.16h128.683v277.675h1.578q50.646-76.886 136.278-76.886 149.76 0 149.76 180.864zM557.781 488.448v85.333h-85.333v85.334h85.333v85.333h85.334v-85.333h85.333V573.78h-85.333v-85.333zm298.667 0v85.333h-85.333v85.334h85.333v85.333h85.333v-85.333h85.334V573.78H941.78v-85.333z" fill="#0277BD"/>
    </symbol>
    <symbol id=".h" viewBox="0 0 1024 1024">
        <path d="M714.453 845.568H586.155V594.603q0-101.59-74.07-101.59-37.077 0-61.354 28.288-23.894 28.246-23.894 73.302v250.965H298.155v-652.16h128.682v277.675h1.579q50.603-76.886 136.235-76.886 149.802 0 149.802 180.864z" fill="#0277BD"/>
    </symbol>

    <symbol id=".cs" viewBox="0 0 1024 1024">
        <path d="M490.667 681.387l17.493 104.106c-11.093 5.974-29.013 11.52-52.907 16.64-24.32 5.547-52.906 8.534-85.76 8.534-94.293-1.707-165.12-29.867-212.48-83.627-47.786-54.187-71.68-122.88-71.68-206.08 2.134-98.56 30.72-174.08 85.334-226.987 56.32-53.333 126.293-80.64 210.773-80.64 32 0 59.733 2.987 82.773 8.107s40.107 10.667 51.2 17.067l-24.746 106.24-45.227-14.507c-17.067-4.267-36.693-6.4-59.307-6.4-49.493-.427-90.453 15.36-122.453 46.933-32.427 31.147-49.067 78.934-50.347 142.507 0 58.027 15.787 103.253 46.08 136.533 30.294 32.854 72.96 49.92 127.574 50.347l56.746-5.12c18.347-3.413 33.707-8.107 46.934-13.653m101.973 129.28L618.667 640h-64l14.506-85.333h64l13.654-85.334h-64L597.333 384h64l26.027-170.667h85.333L746.667 384h42.666l26.027-170.667h85.333L874.667 384h64l-14.507 85.333h-64l-13.653 85.334h64L896 640h-64l-26.027 170.667H720.64L746.667 640H704l-26.027 170.667H592.64m125.867-256h42.666l13.654-85.334H732.16l-13.653 85.334z" fill="#0277BD"/>
    </symbol>
    <symbol id=".aspx" viewBox="0 0 1024 1024">
        <path d="M490.667 681.387l17.493 104.106c-11.093 5.974-29.013 11.52-52.907 16.64-24.32 5.547-52.906 8.534-85.76 8.534-94.293-1.707-165.12-29.867-212.48-83.627-47.786-54.187-71.68-122.88-71.68-206.08 2.134-98.56 30.72-174.08 85.334-226.987 56.32-53.333 126.293-80.64 210.773-80.64 32 0 59.733 2.987 82.773 8.107s40.107 10.667 51.2 17.067l-24.746 106.24-45.227-14.507c-17.067-4.267-36.693-6.4-59.307-6.4-49.493-.427-90.453 15.36-122.453 46.933-32.427 31.147-49.067 78.934-50.347 142.507 0 58.027 15.787 103.253 46.08 136.533 30.294 32.854 72.96 49.92 127.574 50.347l56.746-5.12c18.347-3.413 33.707-8.107 46.934-13.653m101.973 129.28L618.667 640h-64l14.506-85.333h64l13.654-85.334h-64L597.333 384h64l26.027-170.667h85.333L746.667 384h42.666l26.027-170.667h85.333L874.667 384h64l-14.507 85.333h-64l-13.653 85.334h64L896 640h-64l-26.027 170.667H720.64L746.667 640H704l-26.027 170.667H592.64m125.867-256h42.666l13.654-85.334H732.16l-13.653 85.334z" fill="#0277BD"/>
    </symbol>
    <symbol id=".resx" viewBox="0 0 1024 1024">
        <path d="M490.667 681.387l17.493 104.106c-11.093 5.974-29.013 11.52-52.907 16.64-24.32 5.547-52.906 8.534-85.76 8.534-94.293-1.707-165.12-29.867-212.48-83.627-47.786-54.187-71.68-122.88-71.68-206.08 2.134-98.56 30.72-174.08 85.334-226.987 56.32-53.333 126.293-80.64 210.773-80.64 32 0 59.733 2.987 82.773 8.107s40.107 10.667 51.2 17.067l-24.746 106.24-45.227-14.507c-17.067-4.267-36.693-6.4-59.307-6.4-49.493-.427-90.453 15.36-122.453 46.933-32.427 31.147-49.067 78.934-50.347 142.507 0 58.027 15.787 103.253 46.08 136.533 30.294 32.854 72.96 49.92 127.574 50.347l56.746-5.12c18.347-3.413 33.707-8.107 46.934-13.653m101.973 129.28L618.667 640h-64l14.506-85.333h64l13.654-85.334h-64L597.333 384h64l26.027-170.667h85.333L746.667 384h42.666l26.027-170.667h85.333L874.667 384h64l-14.507 85.333h-64l-13.653 85.334h64L896 640h-64l-26.027 170.667H720.64L746.667 640H704l-26.027 170.667H592.64m125.867-256h42.666l13.654-85.334H732.16l-13.653 85.334z" fill="#0277BD"/>
    </symbol>

    <symbol id=".json" viewBox="0 0 1024 1024">
        <path d="M213.333333 128h85.333334v85.333333H213.333333v213.333334a85.333333 85.333333 0 0 1-85.333333 85.333333 85.333333 85.333333 0 0 1 85.333333 85.333333v213.333334h85.333334v85.333333H213.333333c-45.653333-11.52-85.333333-38.4-85.333333-85.333333v-170.666667a85.333333 85.333333 0 0 0-85.333333-85.333333H0v-85.333334h42.666667a85.333333 85.333333 0 0 0 85.333333-85.333333V213.333333a85.333333 85.333333 0 0 1 85.333333-85.333333m597.333334 0a85.333333 85.333333 0 0 1 85.333333 85.333333v170.666667a85.333333 85.333333 0 0 0 85.333333 85.333333h42.666667v85.333334h-42.666667a85.333333 85.333333 0 0 0-85.333333 85.333333v170.666667a85.333333 85.333333 0 0 1-85.333333 85.333333h-85.333334v-85.333333h85.333334v-213.333334a85.333333 85.333333 0 0 1 85.333333-85.333333 85.333333 85.333333 0 0 1-85.333333-85.333333V213.333333h-85.333334V128h85.333334m-298.666667 512a42.666667 42.666667 0 0 1 42.666667 42.666667 42.666667 42.666667 0 0 1-42.666667 42.666666 42.666667 42.666667 0 0 1-42.666667-42.666666 42.666667 42.666667 0 0 1 42.666667-42.666667m-170.666667 0a42.666667 42.666667 0 0 1 42.666667 42.666667 42.666667 42.666667 0 0 1-42.666667 42.666666 42.666667 42.666667 0 0 1-42.666666-42.666666 42.666667 42.666667 0 0 1 42.666666-42.666667m341.333334 0a42.666667 42.666667 0 0 1 42.666666 42.666667 42.666667 42.666667 0 0 1-42.666666 42.666666 42.666667 42.666667 0 0 1-42.666667-42.666666 42.666667 42.666667 0 0 1 42.666667-42.666667z" fill="#FBC02D"/>
    </symbol>

    <symbol id=".md" viewBox="0 0 1024 1024">
        <path d="M96 672V330.667h85.333l128 128 128-128h85.334V672h-85.334V451.413l-128 128-128-128V672H96m597.333-341.333h128v170.666H928l-170.667 192-170.666-192h106.666z" fill="#42A5F5"/>
    </symbol>

    <symbol id=".py" viewBox="0 0 1024 1024">
        <path d="M420.693 85.333c-67.413 0-122.026 54.614-122.026 122.027v71.68h183.04c16.64 0 30.293 24.32 30.293 40.96H207.36c-67.413 0-122.027 54.613-122.027 122.027v161.322c0 67.414 54.614 122.027 122.027 122.027h50.347V611.029c0-67.413 54.186-122.026 121.6-122.026h224c67.413 0 122.026-54.23 122.026-121.643v-160c0-67.413-54.613-122.027-122.026-122.027zm-30.72 68.694c17.067 0 30.72 5.12 30.72 30.293s-13.653 38.016-30.72 38.016c-16.64 0-30.293-12.8-30.293-37.973s13.653-30.336 30.293-30.336z" fill="#3C78AA"/><path d="M766.25 298.667v114.346a121.6 121.6 0 0 1-121.6 121.984H420.694a121.6 121.6 0 0 0-122.026 121.6v160a122.027 122.027 0 0 0 122.026 122.027h182.614A122.027 122.027 0 0 0 725.333 816.64v-71.68H542.251C525.61 744.96 512 720.64 512 704h304.64a122.027 122.027 0 0 0 122.027-122.027v-161.28A122.027 122.027 0 0 0 816.64 298.667zM354.988 491.22l-.171.171c.512-.085 1.067-.043 1.621-.17zm279.04 310.443c16.64 0 30.293 12.8 30.293 37.973a30.293 30.293 0 0 1-30.293 30.294c-17.067 0-30.72-5.12-30.72-30.294s13.653-37.973 30.72-37.973z" fill="#FDD835"/>
    </symbol>
    <symbol id=".pyo" viewBox="0 0 1024 1024">
        <path d="M420.693 85.333c-67.413 0-122.026 54.614-122.026 122.027v71.68h183.04c16.64 0 30.293 24.32 30.293 40.96H207.36c-67.413 0-122.027 54.613-122.027 122.027v161.322c0 67.414 54.614 122.027 122.027 122.027h50.347V611.029c0-67.413 54.186-122.026 121.6-122.026h224c67.413 0 122.026-54.23 122.026-121.643v-160c0-67.413-54.613-122.027-122.026-122.027zm-30.72 68.694c17.067 0 30.72 5.12 30.72 30.293s-13.653 38.016-30.72 38.016c-16.64 0-30.293-12.8-30.293-37.973s13.653-30.336 30.293-30.336z" fill="#3C78AA"/><path d="M766.25 298.667v114.346a121.6 121.6 0 0 1-121.6 121.984H420.694a121.6 121.6 0 0 0-122.026 121.6v160a122.027 122.027 0 0 0 122.026 122.027h182.614A122.027 122.027 0 0 0 725.333 816.64v-71.68H542.251C525.61 744.96 512 720.64 512 704h304.64a122.027 122.027 0 0 0 122.027-122.027v-161.28A122.027 122.027 0 0 0 816.64 298.667zM354.988 491.22l-.171.171c.512-.085 1.067-.043 1.621-.17zm279.04 310.443c16.64 0 30.293 12.8 30.293 37.973a30.293 30.293 0 0 1-30.293 30.294c-17.067 0-30.72-5.12-30.72-30.294s13.653-37.973 30.72-37.973z" fill="#FDD835"/>
    </symbol>
    <symbol id=".pyw" viewBox="0 0 1024 1024">
        <path d="M420.693 85.333c-67.413 0-122.026 54.614-122.026 122.027v71.68h183.04c16.64 0 30.293 24.32 30.293 40.96H207.36c-67.413 0-122.027 54.613-122.027 122.027v161.322c0 67.414 54.614 122.027 122.027 122.027h50.347V611.029c0-67.413 54.186-122.026 121.6-122.026h224c67.413 0 122.026-54.23 122.026-121.643v-160c0-67.413-54.613-122.027-122.026-122.027zm-30.72 68.694c17.067 0 30.72 5.12 30.72 30.293s-13.653 38.016-30.72 38.016c-16.64 0-30.293-12.8-30.293-37.973s13.653-30.336 30.293-30.336z" fill="#3C78AA"/><path d="M766.25 298.667v114.346a121.6 121.6 0 0 1-121.6 121.984H420.694a121.6 121.6 0 0 0-122.026 121.6v160a122.027 122.027 0 0 0 122.026 122.027h182.614A122.027 122.027 0 0 0 725.333 816.64v-71.68H542.251C525.61 744.96 512 720.64 512 704h304.64a122.027 122.027 0 0 0 122.027-122.027v-161.28A122.027 122.027 0 0 0 816.64 298.667zM354.988 491.22l-.171.171c.512-.085 1.067-.043 1.621-.17zm279.04 310.443c16.64 0 30.293 12.8 30.293 37.973a30.293 30.293 0 0 1-30.293 30.294c-17.067 0-30.72-5.12-30.72-30.294s13.653-37.973 30.72-37.973z" fill="#FDD835"/>
    </symbol>
    <symbol id=".pyc" viewBox="0 0 1024 1024">
        <path d="M420.693 85.333c-67.413 0-122.026 54.614-122.026 122.027v71.68h183.04c16.64 0 30.293 24.32 30.293 40.96H207.36c-67.413 0-122.027 54.613-122.027 122.027v161.322c0 67.414 54.614 122.027 122.027 122.027h50.347V611.029c0-67.413 54.186-122.026 121.6-122.026h224c67.413 0 122.026-54.23 122.026-121.643v-160c0-67.413-54.613-122.027-122.026-122.027zm-30.72 68.694c17.067 0 30.72 5.12 30.72 30.293s-13.653 38.016-30.72 38.016c-16.64 0-30.293-12.8-30.293-37.973s13.653-30.336 30.293-30.336z" fill="#3C78AA"/><path d="M766.25 298.667v114.346a121.6 121.6 0 0 1-121.6 121.984H420.694a121.6 121.6 0 0 0-122.026 121.6v160a122.027 122.027 0 0 0 122.026 122.027h182.614A122.027 122.027 0 0 0 725.333 816.64v-71.68H542.251C525.61 744.96 512 720.64 512 704h304.64a122.027 122.027 0 0 0 122.027-122.027v-161.28A122.027 122.027 0 0 0 816.64 298.667zM354.988 491.22l-.171.171c.512-.085 1.067-.043 1.621-.17zm279.04 310.443c16.64 0 30.293 12.8 30.293 37.973a30.293 30.293 0 0 1-30.293 30.294c-17.067 0-30.72-5.12-30.72-30.294s13.653-37.973 30.72-37.973z" fill="#FDD835"/>
    </symbol>
    <symbol id=".pyd" viewBox="0 0 1024 1024">
        <path d="M420.693 85.333c-67.413 0-122.026 54.614-122.026 122.027v71.68h183.04c16.64 0 30.293 24.32 30.293 40.96H207.36c-67.413 0-122.027 54.613-122.027 122.027v161.322c0 67.414 54.614 122.027 122.027 122.027h50.347V611.029c0-67.413 54.186-122.026 121.6-122.026h224c67.413 0 122.026-54.23 122.026-121.643v-160c0-67.413-54.613-122.027-122.026-122.027zm-30.72 68.694c17.067 0 30.72 5.12 30.72 30.293s-13.653 38.016-30.72 38.016c-16.64 0-30.293-12.8-30.293-37.973s13.653-30.336 30.293-30.336z" fill="#3C78AA"/><path d="M766.25 298.667v114.346a121.6 121.6 0 0 1-121.6 121.984H420.694a121.6 121.6 0 0 0-122.026 121.6v160a122.027 122.027 0 0 0 122.026 122.027h182.614A122.027 122.027 0 0 0 725.333 816.64v-71.68H542.251C525.61 744.96 512 720.64 512 704h304.64a122.027 122.027 0 0 0 122.027-122.027v-161.28A122.027 122.027 0 0 0 816.64 298.667zM354.988 491.22l-.171.171c.512-.085 1.067-.043 1.621-.17zm279.04 310.443c16.64 0 30.293 12.8 30.293 37.973a30.293 30.293 0 0 1-30.293 30.294c-17.067 0-30.72-5.12-30.72-30.294s13.653-37.973 30.72-37.973z" fill="#FDD835"/>
    </symbol>


    <symbol id=".php" viewBox="0 0 1024 1024">
        <path d="M369.44 682.176c-4.512-27.136-18.08-49.76-45.248-58.816-9.024-4.512-22.592-13.568-31.68-18.08-13.536-4.512-27.104-9.056-36.16-13.568s-18.08 0-27.136 9.056c-4.544 9.024 0 18.08 4.512 22.592 4.544 9.056 9.056 13.568 18.112 22.624 9.024 13.568 18.08 22.624 31.68 36.192 9.024 13.568 18.08 22.624 13.536 40.704-4.512 31.68-18.08 63.36-40.704 85.952-4.512 4.512-9.056 4.512-9.056 4.512-13.568 0-31.68-9.024-40.704-18.08-13.568-13.568-9.056-27.136 4.512-36.16a9.728 9.728 0 0 0 9.056-9.088c9.056-9.024 13.568-18.08 9.056-31.68-4.512-4.48-4.512-9.024-9.056-13.536-18.08-18.112-40.704-36.192-63.328-54.272-58.784-45.248-85.952-99.52-90.464-162.88-4.512-72.352 13.568-140.192 49.76-203.52 13.568-22.624 31.68-45.248 58.816-58.816 18.08-9.056 36.16-13.568 54.272-18.08 49.76-13.6 104.032-22.624 158.304-13.6 45.248 9.056 81.44 31.68 95.008 76.928 9.056 31.648 13.568 58.784 9.056 90.464-4.544 63.328-54.304 117.6-113.088 135.68-27.136 9.056-40.704 4.544-54.304-18.08-9.024-13.568-22.592-31.68-31.68-49.76v-4.512c0-4.544-4.48-4.544-4.48-9.056 4.48 27.136 9.024 54.272 22.592 76.896 9.056 13.568 18.112 22.624 36.192 22.624 58.816 4.512 104.032-13.568 140.224-58.816 36.192-49.76 45.248-108.544 36.192-171.872 0-13.568-4.512-22.624-9.024-36.192 0-9.056 0-13.568 9.024-18.112 4.544 0 9.056 0 9.056-4.512 45.248-9.056 94.976-13.568 140.224-9.056 54.272 4.544 104.032 18.112 149.28 49.76 72.384 45.248 117.6 113.088 140.224 194.528 4.512 13.568 4.512 22.592 4.512 36.16 0 9.056-4.512 9.056-13.568 4.544-9.024-4.544-13.568-13.568-18.08-18.112-4.544-4.512-9.056-13.568-13.568-18.08-4.544-4.512-9.056-4.512-9.056 0s-4.512 9.056-4.512 13.568c-13.568 45.248-31.68 85.952-63.36 117.6-4.48 4.544-9.024 13.568-9.024 18.112 0 18.08-4.512 36.16 0 54.272 4.512 36.16 9.056 76.896 13.568 113.088 4.512 22.624-4.512 31.68-22.624 40.704-13.568 4.512-27.136 9.056-45.216 9.056h-72.384c0-27.136 0-54.272-22.624-67.84 4.512-18.112 9.056-36.192 13.568-58.816 4.544-18.112 0-31.68-9.056-45.248-9.024-13.568-22.592-13.568-36.16-9.024-36.192 22.592-72.384 22.592-113.088 9.024-18.112-4.512-31.68-4.512-40.736 13.568-9.024 18.112-13.568 36.192-13.568 54.304 0 22.592 4.544 49.728 9.056 72.352 0 13.568 0 18.112-13.568 22.624a207.36 207.36 0 0 1-90.464 4.512h-4.512c0-27.136 0-54.272-31.68-67.84 18.112-18.08 18.112-49.76 13.568-76.896zM183.968 578.144c4.544-4.544 9.056-9.056 9.056-18.112 4.512-13.568-9.056-36.16-22.624-40.704-9.024-4.512-13.568 0-18.08 4.544-13.568 13.568-22.624 27.136-36.192 40.704 0 4.512-4.512 4.512-4.512 9.024-4.544 9.056 0 18.112 9.024 18.112 4.544 0 13.568 0 18.112 4.512 18.08 0 31.68-4.512 45.216-18.08zm0-149.28c0-9.056-9.024-18.08-18.08-18.08s-22.624 9.024-18.08 22.592c0 9.056 9.024 18.112 22.592 18.112 4.544-4.544 13.568-13.568 13.568-22.624z" fill="#0288D1"/>
    </symbol>
    <symbol id=".phps" viewBox="0 0 1024 1024">
        <path d="M369.44 682.176c-4.512-27.136-18.08-49.76-45.248-58.816-9.024-4.512-22.592-13.568-31.68-18.08-13.536-4.512-27.104-9.056-36.16-13.568s-18.08 0-27.136 9.056c-4.544 9.024 0 18.08 4.512 22.592 4.544 9.056 9.056 13.568 18.112 22.624 9.024 13.568 18.08 22.624 31.68 36.192 9.024 13.568 18.08 22.624 13.536 40.704-4.512 31.68-18.08 63.36-40.704 85.952-4.512 4.512-9.056 4.512-9.056 4.512-13.568 0-31.68-9.024-40.704-18.08-13.568-13.568-9.056-27.136 4.512-36.16a9.728 9.728 0 0 0 9.056-9.088c9.056-9.024 13.568-18.08 9.056-31.68-4.512-4.48-4.512-9.024-9.056-13.536-18.08-18.112-40.704-36.192-63.328-54.272-58.784-45.248-85.952-99.52-90.464-162.88-4.512-72.352 13.568-140.192 49.76-203.52 13.568-22.624 31.68-45.248 58.816-58.816 18.08-9.056 36.16-13.568 54.272-18.08 49.76-13.6 104.032-22.624 158.304-13.6 45.248 9.056 81.44 31.68 95.008 76.928 9.056 31.648 13.568 58.784 9.056 90.464-4.544 63.328-54.304 117.6-113.088 135.68-27.136 9.056-40.704 4.544-54.304-18.08-9.024-13.568-22.592-31.68-31.68-49.76v-4.512c0-4.544-4.48-4.544-4.48-9.056 4.48 27.136 9.024 54.272 22.592 76.896 9.056 13.568 18.112 22.624 36.192 22.624 58.816 4.512 104.032-13.568 140.224-58.816 36.192-49.76 45.248-108.544 36.192-171.872 0-13.568-4.512-22.624-9.024-36.192 0-9.056 0-13.568 9.024-18.112 4.544 0 9.056 0 9.056-4.512 45.248-9.056 94.976-13.568 140.224-9.056 54.272 4.544 104.032 18.112 149.28 49.76 72.384 45.248 117.6 113.088 140.224 194.528 4.512 13.568 4.512 22.592 4.512 36.16 0 9.056-4.512 9.056-13.568 4.544-9.024-4.544-13.568-13.568-18.08-18.112-4.544-4.512-9.056-13.568-13.568-18.08-4.544-4.512-9.056-4.512-9.056 0s-4.512 9.056-4.512 13.568c-13.568 45.248-31.68 85.952-63.36 117.6-4.48 4.544-9.024 13.568-9.024 18.112 0 18.08-4.512 36.16 0 54.272 4.512 36.16 9.056 76.896 13.568 113.088 4.512 22.624-4.512 31.68-22.624 40.704-13.568 4.512-27.136 9.056-45.216 9.056h-72.384c0-27.136 0-54.272-22.624-67.84 4.512-18.112 9.056-36.192 13.568-58.816 4.544-18.112 0-31.68-9.056-45.248-9.024-13.568-22.592-13.568-36.16-9.024-36.192 22.592-72.384 22.592-113.088 9.024-18.112-4.512-31.68-4.512-40.736 13.568-9.024 18.112-13.568 36.192-13.568 54.304 0 22.592 4.544 49.728 9.056 72.352 0 13.568 0 18.112-13.568 22.624a207.36 207.36 0 0 1-90.464 4.512h-4.512c0-27.136 0-54.272-31.68-67.84 18.112-18.08 18.112-49.76 13.568-76.896zM183.968 578.144c4.544-4.544 9.056-9.056 9.056-18.112 4.512-13.568-9.056-36.16-22.624-40.704-9.024-4.512-13.568 0-18.08 4.544-13.568 13.568-22.624 27.136-36.192 40.704 0 4.512-4.512 4.512-4.512 9.024-4.544 9.056 0 18.112 9.024 18.112 4.544 0 13.568 0 18.112 4.512 18.08 0 31.68-4.512 45.216-18.08zm0-149.28c0-9.056-9.024-18.08-18.08-18.08s-22.624 9.024-18.08 22.592c0 9.056 9.024 18.112 22.592 18.112 4.544-4.544 13.568-13.568 13.568-22.624z" fill="#0288D1"/>
    </symbol>

    <symbol id=".lua" viewBox="0 0 1024 1024">
        <path d="M517.419 240.81a276.608 272.256 0 0 0-276.566 272.257A276.608 272.256 0 0 0 517.42 785.28a276.608 272.256 0 0 0 276.65-272.213 276.608 272.256 0 0 0-276.65-272.214zm79.36 81.75a99.37 97.792 0 0 1 99.413 97.835 99.37 97.792 0 0 1-99.413 97.749 99.37 97.792 0 0 1-99.371-97.707 99.37 97.792 0 0 1 99.328-97.877zM729.557 192.555a99.37 97.792 0 1 0 198.742 0 99.37 97.792 0 1 0-198.742 0z" fill="#42A5F5"/>
    </symbol>

    <symbol id=".go" viewBox="0 0 1024 1024">
        <path d="M77.599 472.388c-1.994 0-2.492-.996-1.495-2.491l10.462-13.449c.996-1.495 3.488-2.492 5.478-2.492h177.852c1.99 0 2.491 1.495 1.491 2.99l-8.465 12.954c-1 1.492-3.488 2.987-4.983 2.987zM2.372 518.223c-1.99 0-2.491-.997-1.491-2.492l10.462-13.449c.993-1.498 3.485-2.491 5.478-2.491h227.167c1.994 0 2.99 1.491 2.492 2.986l-3.987 11.957c-.498 1.993-2.491 2.99-4.481 2.99zm120.56 45.83c-1.99 0-2.493-1.495-1.496-2.99l6.977-12.452c.997-1.495 2.99-2.99 4.983-2.99h99.636c1.99 0 2.986 1.495 2.986 3.489l-.996 11.953c0 1.994-1.994 3.489-3.489 3.489zm517.106-100.632c-31.383 7.97-52.805 13.95-83.695 21.92-7.469 1.994-7.967 2.493-14.446-4.983-7.471-8.465-12.95-13.946-23.415-18.93-31.382-15.442-61.771-10.957-90.167 7.475-33.877 21.917-51.312 54.3-50.814 94.652.498 39.854 27.897 72.735 67.253 78.213 33.877 4.485 62.273-7.472 84.692-32.877 4.481-5.482 8.465-11.459 13.448-18.432h-96.147c-10.462 0-12.953-6.479-9.465-14.947 6.475-15.442 18.432-41.35 25.406-54.303 1.495-2.986 4.983-7.97 12.455-7.97H656.48c-.997 13.449-.997 26.904-2.99 40.352-5.479 35.871-18.93 68.748-40.851 97.642-35.868 47.33-82.695 76.722-141.981 84.692-48.821 6.475-94.154-2.99-134.008-32.88-36.864-27.898-57.787-64.762-63.27-110.593-6.474-54.306 9.466-103.123 42.347-145.968 35.368-46.329 82.2-75.72 139.489-86.186 46.83-8.465 91.665-2.987 132.017 24.412 26.402 17.435 45.333 41.35 57.788 70.246 2.99 4.482.997 6.97-4.983 8.465z" fill="#00ACC1"/><path d="M804.932 738.915c-45.329-.997-86.678-13.95-121.549-43.84-29.395-25.406-47.827-57.789-53.807-96.148-8.967-56.296 6.478-106.113 40.352-150.45 36.37-47.823 80.207-72.734 139.49-83.196 50.814-8.967 98.641-3.986 141.98 25.41 39.356 26.896 63.768 63.265 70.247 111.09 8.465 67.256-10.964 122.053-57.293 168.881-32.88 33.382-73.233 54.303-119.562 63.768-13.449 2.492-26.9 2.99-39.854 4.485zm118.57-201.264c-.5-6.478-.5-11.458-1.496-16.442-8.967-49.32-54.3-77.216-101.628-66.253-46.33 10.459-76.22 39.851-87.177 86.679-8.97 38.86 9.96 78.216 45.827 94.156 27.403 11.957 54.802 10.462 81.204-2.99 39.355-20.425 60.777-52.306 63.27-95.15z" fill="#00ACC1"/>
    </symbol>

    <symbol id=".sln" viewBox="0 0 1024 1024">
        <path d="M714.27 370.424L522.11 524.958 714.27 673.83V370.424m-497.6 400.498l-109.227-68.773V338.06l121.361-40.454L402.76 432.32l351.95-324.847 161.816 101.136v627.034l-202.27 80.908-309.88-296.933L216.67 770.915m12.135-178l75.247-69.58-75.247-72.01z" fill="#AB47BC"/>
    </symbol>

    <symbol id=".ttf" viewBox="0 0 1024 1024">
        <path d="M383.147 620.288L512 277.632l128.299 342.656m-182.443-487.21L160.128 890.964h121.813l60.587-162.389h338.347l61.184 162.39h121.813L566.144 133.076z" fill="#F44336"/>
    </symbol>
    <symbol id=".otf" viewBox="0 0 1024 1024">
        <path d="M383.147 620.288L512 277.632l128.299 342.656m-182.443-487.21L160.128 890.964h121.813l60.587-162.389h338.347l61.184 162.39h121.813L566.144 133.076z" fill="#F44336"/>
    </symbol>
    <symbol id=".woff" viewBox="0 0 1024 1024">
        <path d="M383.147 620.288L512 277.632l128.299 342.656m-182.443-487.21L160.128 890.964h121.813l60.587-162.389h338.347l61.184 162.39h121.813L566.144 133.076z" fill="#F44336"/>
    </symbol>
    <symbol id=".woff2" viewBox="0 0 1024 1024">
        <path d="M383.147 620.288L512 277.632l128.299 342.656m-182.443-487.21L160.128 890.964h121.813l60.587-162.389h338.347l61.184 162.39h121.813L566.144 133.076z" fill="#F44336"/>
    </symbol>
    <symbol id=".eot" viewBox="0 0 1024 1024">
        <path d="M383.147 620.288L512 277.632l128.299 342.656m-182.443-487.21L160.128 890.964h121.813l60.587-162.389h338.347l61.184 162.39h121.813L566.144 133.076z" fill="#F44336"/>
    </symbol>

    <symbol id=".apk" viewBox="0 0 1024 1024">
        <path d="M633.472 228.565h-40.533v-40.533h40.533m-202.496 40.533h-40.49v-40.533h40.533m223.914-74.453L707.968 60.5a20.779 20.779 0 0 0 0-28.757 20.779 20.779 0 0 0-28.757 0l-59.904 59.99a244.65 244.65 0 0 0-107.35-25.131c-38.826 0-75.306 9.344-107.69 25.514l-60.374-60.373a20.31 20.31 0 0 0-28.373 0 20.053 20.053 0 0 0 0 28.757l53.12 53.078c-60.373 44.544-99.627 114.986-99.627 195.968h485.974c0-80.982-40.534-151.851-100.054-195.968M856.235 350.08a60.757 60.757 0 0 0-60.758 60.715v283.477a60.757 60.757 0 0 0 60.758 60.757 60.757 60.757 0 0 0 60.714-60.757V410.795a60.757 60.757 0 0 0-60.714-60.715m-688.47 0a60.757 60.757 0 0 0-60.757 60.715v283.477a60.757 60.757 0 0 0 60.757 60.757 60.757 60.757 0 0 0 60.715-60.757V410.795a60.757 60.757 0 0 0-60.715-60.715m101.206 404.95a40.533 40.533 0 0 0 40.533 40.533h40.49v141.696a60.757 60.757 0 0 0 60.715 60.757 60.757 60.757 0 0 0 60.758-60.757V795.52h80.981v141.739a60.757 60.757 0 0 0 60.757 60.757 60.757 60.757 0 0 0 60.758-60.757V795.52h40.49a40.533 40.533 0 0 0 40.534-40.49V350.08H268.97z" fill="#8BC34A"/>
    </symbol>
    <symbol id=".xapk" viewBox="0 0 1024 1024">
        <path d="M633.472 228.565h-40.533v-40.533h40.533m-202.496 40.533h-40.49v-40.533h40.533m223.914-74.453L707.968 60.5a20.779 20.779 0 0 0 0-28.757 20.779 20.779 0 0 0-28.757 0l-59.904 59.99a244.65 244.65 0 0 0-107.35-25.131c-38.826 0-75.306 9.344-107.69 25.514l-60.374-60.373a20.31 20.31 0 0 0-28.373 0 20.053 20.053 0 0 0 0 28.757l53.12 53.078c-60.373 44.544-99.627 114.986-99.627 195.968h485.974c0-80.982-40.534-151.851-100.054-195.968M856.235 350.08a60.757 60.757 0 0 0-60.758 60.715v283.477a60.757 60.757 0 0 0 60.758 60.757 60.757 60.757 0 0 0 60.714-60.757V410.795a60.757 60.757 0 0 0-60.714-60.715m-688.47 0a60.757 60.757 0 0 0-60.757 60.715v283.477a60.757 60.757 0 0 0 60.757 60.757 60.757 60.757 0 0 0 60.715-60.757V410.795a60.757 60.757 0 0 0-60.715-60.715m101.206 404.95a40.533 40.533 0 0 0 40.533 40.533h40.49v141.696a60.757 60.757 0 0 0 60.715 60.757 60.757 60.757 0 0 0 60.758-60.757V795.52h80.981v141.739a60.757 60.757 0 0 0 60.757 60.757 60.757 60.757 0 0 0 60.758-60.757V795.52h40.49a40.533 40.533 0 0 0 40.534-40.49V350.08H268.97z" fill="#8BC34A"/>
    </symbol>

    <symbol id=".css" viewBox="0 0 1024 1024">
        <path d="M213.333 128L185.6 270.507h579.84l-18.773 92.16H167.253l-28.16 142.08h579.84l-32.426 162.56-233.814 77.226-202.666-77.226 14.08-69.974H121.6L87.893 768l334.934 128L808.96 768l51.2-257.28 10.24-51.627L936.107 128H213.333z" fill="#42A5F5"/>
    </symbol>
    <symbol id=".less" viewBox="0 0 1024 1024">
        <path d="M362.469 111.787v.088a2857.37 2857.37 0 0 0-21.596-.061c-25.727-.222-47.261 13.834-65.99 28.491-20.44 16.053-37.936 37.007-43.418 65.075-3.123 16.46-2.461 30.847-2.461 45.22v113.268c0 39.994-14.882 69.714-35.069 89.167-11.373 11.264-35.642 21.548-63.249 30.846v51.166c24.467 6.745 48.02 15.872 61.082 27.467 21.623 18.893 37.212 46.08 37.212 81.592v132.28c0 43.947 10.482 77.422 40.984 100.387 30.501 22.944 66.048 34.358 106.646 35.468l27.167-.181V846.1c-21.194-6.202-32.966-13.397-41.452-21.538-15.274-13.83-23.927-36.297-23.927-67.502V650.25c-.58-36.328-6.441-64.744-19.671-85.306-13.23-20.514-39.049-38.506-77.466-54.006 42.397-19.421 70.844-44.742 85.35-75.98 8.548-18.576 11.79-43.626 11.79-75.131V261.89c0-32.351 7.51-55.012 20.514-67.96 7.06-7.024 19.613-12.81 37.052-17.492l27.576.19v-64.842h-61.081v.003zm299.045 0v.088a2857.37 2857.37 0 0 1 21.596-.061c25.727-.222 47.261 13.834 65.99 28.491 20.44 16.053 37.936 37.007 43.418 65.075 3.123 16.46 2.461 30.847 2.461 45.22v113.268c0 39.994 14.882 69.714 35.069 89.167 11.373 11.264 35.642 21.548 63.249 30.846v51.166c-24.467 6.745-48.02 15.872-61.082 27.467-21.623 18.893-37.212 46.08-37.212 81.592v132.28c0 43.947-10.482 77.422-40.987 100.387-30.502 22.944-66.048 34.358-106.647 35.468l-27.166-.181V846.1c21.193-6.202 32.966-13.397 41.451-21.538 15.275-13.83 23.928-36.297 23.928-67.502V650.25c.583-36.328 6.44-64.744 19.67-85.306 13.23-20.514 39.05-38.509 77.466-54.006-42.393-19.421-70.843-44.742-85.35-75.98-8.547-18.576-11.79-43.626-11.79-75.131V261.89c0-32.351-7.51-55.012-20.514-67.96-7.059-7.024-19.613-12.81-37.052-17.492l-27.573.19v-64.842h61.079v.003z" fill="#0277BD"/>
    </symbol>

    <symbol id=".js" viewBox="0 0 1024 1024">
        <path d="M128 128h768v768H128V128m201.813 641.707c17.067 36.266 50.774 66.133 108.374 66.133 64 0 107.946-34.133 107.946-108.8V480.427H473.6v244.906c0 36.694-14.933 46.08-38.4 46.08-24.747 0-34.987-17.066-46.507-37.12l-58.88 35.414m255.147-7.68c21.333 41.813 64.427 73.813 131.84 73.813 68.267 0 119.467-35.413 119.467-100.693 0-60.16-34.56-87.04-96-113.494l-17.92-7.68c-31.147-13.226-44.374-22.186-44.374-43.52 0-17.493 13.227-31.146 34.56-31.146 20.48 0 34.134 8.96 46.507 31.146l55.893-37.12c-23.466-40.96-56.746-56.746-102.4-56.746-64.426 0-105.813 40.96-105.813 95.146 0 58.88 34.56 86.614 86.613 108.8l17.92 7.68c33.28 14.507 52.907 23.467 52.907 48.214 0 20.48-19.2 35.413-49.067 35.413-35.413 0-55.893-18.347-71.253-43.947l-58.88 34.134z" fill="#FFCA28"/>
    </symbol>

    <symbol id=".exe" viewBox="0 0 1024 1024">
        <path d="M106.667 320h810.666v-85.333A10.667 10.667 0 0 0 906.667 224H117.333a10.667 10.667 0 0 0-10.666 10.667V320zm10.666 480h789.334a10.667 10.667 0 0 0 10.666-10.667v-448H106.667v448A10.667 10.667 0 0 0 117.333 800z" fill="#FFF"/>
        <path d="M138.667 272a16 16 0 1 0 32 0 16 16 0 1 0-32 0zM192 272a16 16 0 1 0 32 0 16 16 0 1 0-32 0zM245.33300000000003 272a16 16 0 1 0 32 0 16 16 0 1 0-32 0z" fill="#C8C6C4"/>
        <path d="M320 800H117.333a10.667 10.667 0 0 1-10.666-10.667v-448H320V800z" fill="#EDEBE9"/>
        <path d="M256 501.333h-85.333a10.667 10.667 0 1 1 0-21.333H256a10.667 10.667 0 1 1 0 21.333zm0-64h-85.333a10.667 10.667 0 1 1 0-21.333H256a10.667 10.667 0 1 1 0 21.333zm0 128h-85.333a10.667 10.667 0 1 1 0-21.333H256a10.667 10.667 0 1 1 0 21.333zm320-64H394.667a10.667 10.667 0 1 1 0-21.333H576a10.667 10.667 0 1 1 0 21.333zm0-64H394.667a10.667 10.667 0 1 1 0-21.333H576a10.667 10.667 0 1 1 0 21.333zm0 128H394.667a10.667 10.667 0 1 1 0-21.333H576a10.667 10.667 0 1 1 0 21.333zm0 64H394.667a10.667 10.667 0 1 1 0-21.333H576a10.667 10.667 0 1 1 0 21.333zm0 64H394.667a10.667 10.667 0 1 1 0-21.333H576a10.667 10.667 0 1 1 0 21.333z" fill="#C8C6C4"/>
        <path d="M842.667 693.333H661.333A21.333 21.333 0 0 1 640 672V437.333A21.333 21.333 0 0 1 661.333 416h181.334A21.333 21.333 0 0 1 864 437.333V672a21.333 21.333 0 0 1-21.333 21.333z" fill="#69AFE5"/>
        <path d="M906.667 202.667H117.333c-17.642 0-32 14.357-32 32v554.666c0 17.643 14.358 32 32 32h789.334c17.642 0 32-14.357 32-32V234.667c0-17.643-14.358-32-32-32zM117.333 224h789.334a10.667 10.667 0 0 1 10.666 10.667V320H106.667v-85.333A10.667 10.667 0 0 1 117.333 224zm789.334 576H117.333a10.667 10.667 0 0 1-10.666-10.667v-448h810.666v448A10.667 10.667 0 0 1 906.667 800z" fill="#605E5C" opacity=".64"/>
    </symbol>

    <symbol id=".log" viewBox="0 0 1024 1024">
        <path d="M593.963 716.885H307.115v-81.92h286.848m122.922-82.005h-409.77v-81.92h409.77m0-82.005h-409.77v-81.92h409.77m81.963-163.926H225.152a81.642 81.642 0 0 0-81.92 81.92v573.739a81.92 81.92 0 0 0 81.92 81.92h573.696a81.92 81.92 0 0 0 81.963-81.92V225.152a81.92 81.92 0 0 0-81.92-81.963z" fill="#AFB42B"/>
    </symbol>

    <symbol id=".doc" viewBox="0 0 1024 1024">
        <path d="M554.667 384h234.666L554.667 149.333V384M256 85.333h341.333l256 256v512A85.333 85.333 0 0 1 768 938.667H256a85.333 85.333 0 0 1-85.333-85.334V170.667A85.038 85.038 0 0 1 256 85.333M640 768v-85.333H256V768h384m128-170.667V512H256v85.333h512z" fill="#42A5F5"/>
    </symbol>
    <symbol id=".docx" viewBox="0 0 1024 1024">
        <path d="M554.667 384h234.666L554.667 149.333V384M256 85.333h341.333l256 256v512A85.333 85.333 0 0 1 768 938.667H256a85.333 85.333 0 0 1-85.333-85.334V170.667A85.038 85.038 0 0 1 256 85.333M640 768v-85.333H256V768h384m128-170.667V512H256v85.333h512z" fill="#42A5F5"/>
    </symbol>
    <symbol id=".docm" viewBox="0 0 1024 1024">
        <path d="M554.667 384h234.666L554.667 149.333V384M256 85.333h341.333l256 256v512A85.333 85.333 0 0 1 768 938.667H256a85.333 85.333 0 0 1-85.333-85.334V170.667A85.038 85.038 0 0 1 256 85.333M640 768v-85.333H256V768h384m128-170.667V512H256v85.333h512z" fill="#42A5F5"/>
    </symbol>
    <symbol id=".dot" viewBox="0 0 1024 1024">
        <path d="M554.667 384h234.666L554.667 149.333V384M256 85.333h341.333l256 256v512A85.333 85.333 0 0 1 768 938.667H256a85.333 85.333 0 0 1-85.333-85.334V170.667A85.038 85.038 0 0 1 256 85.333M640 768v-85.333H256V768h384m128-170.667V512H256v85.333h512z" fill="#42A5F5"/>
    </symbol>
    <symbol id=".dotx" viewBox="0 0 1024 1024">
        <path d="M554.667 384h234.666L554.667 149.333V384M256 85.333h341.333l256 256v512A85.333 85.333 0 0 1 768 938.667H256a85.333 85.333 0 0 1-85.333-85.334V170.667A85.038 85.038 0 0 1 256 85.333M640 768v-85.333H256V768h384m128-170.667V512H256v85.333h512z" fill="#42A5F5"/>
    </symbol>
    <symbol id=".dotm" viewBox="0 0 1024 1024">
        <path d="M554.667 384h234.666L554.667 149.333V384M256 85.333h341.333l256 256v512A85.333 85.333 0 0 1 768 938.667H256a85.333 85.333 0 0 1-85.333-85.334V170.667A85.038 85.038 0 0 1 256 85.333M640 768v-85.333H256V768h384m128-170.667V512H256v85.333h512z" fill="#42A5F5"/>
    </symbol>

    <symbol id=".jpg" viewBox="0 0 1024 1024">
        <path d="M553.643 387.072h229.034L553.643 158.08v228.992M262.144 95.616h333.141l249.856 249.813V845.1a83.285 83.285 0 0 1-83.285 83.285h-499.67a83.243 83.243 0 0 1-83.285-83.285v-666.24c0-46.208 37.035-83.243 83.286-83.243m0 749.525h499.626V512L595.285 678.57 512 595.286 262.144 845.141m83.285-458.026a83.285 83.285 0 0 0-83.285 83.285 83.285 83.285 0 0 0 83.285 83.243 83.285 83.285 0 0 0 83.286-83.243 83.285 83.285 0 0 0-83.286-83.285z" fill="#26A69A"/>
    </symbol>
    <symbol id=".png" viewBox="0 0 1024 1024">
        <path d="M553.643 387.072h229.034L553.643 158.08v228.992M262.144 95.616h333.141l249.856 249.813V845.1a83.285 83.285 0 0 1-83.285 83.285h-499.67a83.243 83.243 0 0 1-83.285-83.285v-666.24c0-46.208 37.035-83.243 83.286-83.243m0 749.525h499.626V512L595.285 678.57 512 595.286 262.144 845.141m83.285-458.026a83.285 83.285 0 0 0-83.285 83.285 83.285 83.285 0 0 0 83.285 83.243 83.285 83.285 0 0 0 83.286-83.243 83.285 83.285 0 0 0-83.286-83.285z" fill="#26A69A"/>
    </symbol>
    <symbol id=".jpeg" viewBox="0 0 1024 1024">
        <path d="M553.643 387.072h229.034L553.643 158.08v228.992M262.144 95.616h333.141l249.856 249.813V845.1a83.285 83.285 0 0 1-83.285 83.285h-499.67a83.243 83.243 0 0 1-83.285-83.285v-666.24c0-46.208 37.035-83.243 83.286-83.243m0 749.525h499.626V512L595.285 678.57 512 595.286 262.144 845.141m83.285-458.026a83.285 83.285 0 0 0-83.285 83.285 83.285 83.285 0 0 0 83.285 83.243 83.285 83.285 0 0 0 83.286-83.243 83.285 83.285 0 0 0-83.286-83.285z" fill="#26A69A"/>
    </symbol>
    <symbol id=".bmp" viewBox="0 0 1024 1024">
        <path d="M553.643 387.072h229.034L553.643 158.08v228.992M262.144 95.616h333.141l249.856 249.813V845.1a83.285 83.285 0 0 1-83.285 83.285h-499.67a83.243 83.243 0 0 1-83.285-83.285v-666.24c0-46.208 37.035-83.243 83.286-83.243m0 749.525h499.626V512L595.285 678.57 512 595.286 262.144 845.141m83.285-458.026a83.285 83.285 0 0 0-83.285 83.285 83.285 83.285 0 0 0 83.285 83.243 83.285 83.285 0 0 0 83.286-83.243 83.285 83.285 0 0 0-83.286-83.285z" fill="#26A69A"/>
    </symbol>
    <symbol id=".gif" viewBox="0 0 1024 1024">
        <path d="M553.643 387.072h229.034L553.643 158.08v228.992M262.144 95.616h333.141l249.856 249.813V845.1a83.285 83.285 0 0 1-83.285 83.285h-499.67a83.243 83.243 0 0 1-83.285-83.285v-666.24c0-46.208 37.035-83.243 83.286-83.243m0 749.525h499.626V512L595.285 678.57 512 595.286 262.144 845.141m83.285-458.026a83.285 83.285 0 0 0-83.285 83.285 83.285 83.285 0 0 0 83.285 83.243 83.285 83.285 0 0 0 83.286-83.243 83.285 83.285 0 0 0-83.286-83.285z" fill="#26A69A"/>
    </symbol>
    <symbol id=".tif" viewBox="0 0 1024 1024">
        <path d="M553.643 387.072h229.034L553.643 158.08v228.992M262.144 95.616h333.141l249.856 249.813V845.1a83.285 83.285 0 0 1-83.285 83.285h-499.67a83.243 83.243 0 0 1-83.285-83.285v-666.24c0-46.208 37.035-83.243 83.286-83.243m0 749.525h499.626V512L595.285 678.57 512 595.286 262.144 845.141m83.285-458.026a83.285 83.285 0 0 0-83.285 83.285 83.285 83.285 0 0 0 83.285 83.243 83.285 83.285 0 0 0 83.286-83.243 83.285 83.285 0 0 0-83.286-83.285z" fill="#26A69A"/>
    </symbol>
    <symbol id=".pcx" viewBox="0 0 1024 1024">
        <path d="M553.643 387.072h229.034L553.643 158.08v228.992M262.144 95.616h333.141l249.856 249.813V845.1a83.285 83.285 0 0 1-83.285 83.285h-499.67a83.243 83.243 0 0 1-83.285-83.285v-666.24c0-46.208 37.035-83.243 83.286-83.243m0 749.525h499.626V512L595.285 678.57 512 595.286 262.144 845.141m83.285-458.026a83.285 83.285 0 0 0-83.285 83.285 83.285 83.285 0 0 0 83.285 83.243 83.285 83.285 0 0 0 83.286-83.243 83.285 83.285 0 0 0-83.286-83.285z" fill="#26A69A"/>
    </symbol>
    <symbol id=".tga" viewBox="0 0 1024 1024">
        <path d="M553.643 387.072h229.034L553.643 158.08v228.992M262.144 95.616h333.141l249.856 249.813V845.1a83.285 83.285 0 0 1-83.285 83.285h-499.67a83.243 83.243 0 0 1-83.285-83.285v-666.24c0-46.208 37.035-83.243 83.286-83.243m0 749.525h499.626V512L595.285 678.57 512 595.286 262.144 845.141m83.285-458.026a83.285 83.285 0 0 0-83.285 83.285 83.285 83.285 0 0 0 83.285 83.243 83.285 83.285 0 0 0 83.286-83.243 83.285 83.285 0 0 0-83.286-83.285z" fill="#26A69A"/>
    </symbol>
    <symbol id=".exif" viewBox="0 0 1024 1024">
        <path d="M553.643 387.072h229.034L553.643 158.08v228.992M262.144 95.616h333.141l249.856 249.813V845.1a83.285 83.285 0 0 1-83.285 83.285h-499.67a83.243 83.243 0 0 1-83.285-83.285v-666.24c0-46.208 37.035-83.243 83.286-83.243m0 749.525h499.626V512L595.285 678.57 512 595.286 262.144 845.141m83.285-458.026a83.285 83.285 0 0 0-83.285 83.285 83.285 83.285 0 0 0 83.285 83.243 83.285 83.285 0 0 0 83.286-83.243 83.285 83.285 0 0 0-83.286-83.285z" fill="#26A69A"/>
    </symbol>
    <symbol id=".fpx" viewBox="0 0 1024 1024">
        <path d="M553.643 387.072h229.034L553.643 158.08v228.992M262.144 95.616h333.141l249.856 249.813V845.1a83.285 83.285 0 0 1-83.285 83.285h-499.67a83.243 83.243 0 0 1-83.285-83.285v-666.24c0-46.208 37.035-83.243 83.286-83.243m0 749.525h499.626V512L595.285 678.57 512 595.286 262.144 845.141m83.285-458.026a83.285 83.285 0 0 0-83.285 83.285 83.285 83.285 0 0 0 83.285 83.243 83.285 83.285 0 0 0 83.286-83.243 83.285 83.285 0 0 0-83.286-83.285z" fill="#26A69A"/>
    </symbol>
    <symbol id=".ai" viewBox="0 0 1024 1024">
        <path d="M553.643 387.072h229.034L553.643 158.08v228.992M262.144 95.616h333.141l249.856 249.813V845.1a83.285 83.285 0 0 1-83.285 83.285h-499.67a83.243 83.243 0 0 1-83.285-83.285v-666.24c0-46.208 37.035-83.243 83.286-83.243m0 749.525h499.626V512L595.285 678.57 512 595.286 262.144 845.141m83.285-458.026a83.285 83.285 0 0 0-83.285 83.285 83.285 83.285 0 0 0 83.285 83.243 83.285 83.285 0 0 0 83.286-83.243 83.285 83.285 0 0 0-83.286-83.285z" fill="#26A69A"/>
    </symbol>
    <symbol id=".raw" viewBox="0 0 1024 1024">
        <path d="M553.643 387.072h229.034L553.643 158.08v228.992M262.144 95.616h333.141l249.856 249.813V845.1a83.285 83.285 0 0 1-83.285 83.285h-499.67a83.243 83.243 0 0 1-83.285-83.285v-666.24c0-46.208 37.035-83.243 83.286-83.243m0 749.525h499.626V512L595.285 678.57 512 595.286 262.144 845.141m83.285-458.026a83.285 83.285 0 0 0-83.285 83.285 83.285 83.285 0 0 0 83.285 83.243 83.285 83.285 0 0 0 83.286-83.243 83.285 83.285 0 0 0-83.286-83.285z" fill="#26A69A"/>
    </symbol>
    <symbol id=".webp" viewBox="0 0 1024 1024">
        <path d="M553.643 387.072h229.034L553.643 158.08v228.992M262.144 95.616h333.141l249.856 249.813V845.1a83.285 83.285 0 0 1-83.285 83.285h-499.67a83.243 83.243 0 0 1-83.285-83.285v-666.24c0-46.208 37.035-83.243 83.286-83.243m0 749.525h499.626V512L595.285 678.57 512 595.286 262.144 845.141m83.285-458.026a83.285 83.285 0 0 0-83.285 83.285 83.285 83.285 0 0 0 83.285 83.243 83.285 83.285 0 0 0 83.286-83.243 83.285 83.285 0 0 0-83.286-83.285z" fill="#26A69A"/>
    </symbol>

    <symbol id=".pdf" viewBox="0 0 1024 1024">
        <path d="M554.667 384h234.666L554.667 149.333V384M256 85.333h341.333l256 256v512A85.333 85.333 0 0 1 768 938.667H256a85.333 85.333 0 0 1-85.333-85.334V170.667A85.333 85.333 0 0 1 256 85.333m210.347 445.44c17.493 38.4 39.68 69.974 65.28 91.734l17.493 13.653c-37.12 6.827-88.32 18.773-142.507 39.68l-4.693 1.707 21.333-44.374c19.2-37.12 33.28-70.826 43.094-102.4m276.48 162.56c7.68-7.68 11.52-17.493 11.946-28.16 1.28-8.533-.853-16.64-5.12-23.466-12.373-20.054-44.373-29.44-97.28-29.44l-55.04 2.986-37.12-24.746c-26.88-22.187-51.2-61.014-68.266-109.227l1.706-5.973c14.08-56.747 27.307-125.44-.853-153.6a36.395 36.395 0 0 0-26.027-10.24h-10.24c-15.786 0-29.866 16.64-33.706 32.853-15.787 56.747-6.4 87.893 9.386 139.52v.427c-10.666 37.546-24.32 81.066-46.08 125.013l-40.96 76.8-37.973 20.907c-51.2 32-75.52 67.84-80.213 90.453-1.707 8.107-.854 15.36 2.133 23.04l1.28 2.133 20.48 13.227 18.773 4.693c34.56 0 73.814-40.533 126.72-130.986l7.68-2.987c43.947-14.08 98.56-23.893 171.947-32 43.947 21.76 95.573 31.573 128 31.573 18.773 0 31.573-4.693 38.827-12.8m-17.494-30.293l3.84 4.693c-.426 4.267-1.706 4.694-3.84 5.547h-1.706l-8.107.853c-19.627 0-49.92-8.106-81.067-21.76 3.84-4.266 5.547-4.266 9.814-4.266 59.733 0 76.8 10.666 81.066 14.933M334.08 725.333c-27.733 50.774-52.907 78.934-72.107 85.334 2.134-16.214 21.334-44.374 51.627-72.107l20.48-13.227m128.853-294.826c-9.813-38.4-10.24-69.547-2.986-87.467l2.986-5.12 6.4 2.133c7.254 10.24 8.107 23.894 3.84 46.934l-1.28 6.826-6.826 34.987z" fill="#F44336"/>
    </symbol>
    
    <symbol id=".ppt" viewBox="0 0 1024 1024">
        <path d="M256 85.333h341.333l256 256v512A85.333 85.333 0 0 1 768 938.667H256a85.333 85.333 0 0 1-85.333-85.334V170.667A85.333 85.333 0 0 1 256 85.333m298.667 64V384h234.666L554.667 149.333m-213.334 320v85.334H384v256h-42.667v42.666H512v-42.666h-42.667v-85.334h85.334a128 128 0 0 0 128-128 128 128 0 0 0-128-128H341.333m213.334 85.334a42.667 42.667 0 0 1 42.666 42.666A42.667 42.667 0 0 1 554.667 640h-85.334v-85.333h85.334z" fill="#D14524"/>
    </symbol>
    <symbol id=".pptx" viewBox="0 0 1024 1024">
        <path d="M256 85.333h341.333l256 256v512A85.333 85.333 0 0 1 768 938.667H256a85.333 85.333 0 0 1-85.333-85.334V170.667A85.333 85.333 0 0 1 256 85.333m298.667 64V384h234.666L554.667 149.333m-213.334 320v85.334H384v256h-42.667v42.666H512v-42.666h-42.667v-85.334h85.334a128 128 0 0 0 128-128 128 128 0 0 0-128-128H341.333m213.334 85.334a42.667 42.667 0 0 1 42.666 42.666A42.667 42.667 0 0 1 554.667 640h-85.334v-85.333h85.334z" fill="#D14524"/>
    </symbol>
    <symbol id=".pptm" viewBox="0 0 1024 1024">
        <path d="M256 85.333h341.333l256 256v512A85.333 85.333 0 0 1 768 938.667H256a85.333 85.333 0 0 1-85.333-85.334V170.667A85.333 85.333 0 0 1 256 85.333m298.667 64V384h234.666L554.667 149.333m-213.334 320v85.334H384v256h-42.667v42.666H512v-42.666h-42.667v-85.334h85.334a128 128 0 0 0 128-128 128 128 0 0 0-128-128H341.333m213.334 85.334a42.667 42.667 0 0 1 42.666 42.666A42.667 42.667 0 0 1 554.667 640h-85.334v-85.333h85.334z" fill="#D14524"/>
    </symbol>
    <symbol id=".potx" viewBox="0 0 1024 1024">
        <path d="M256 85.333h341.333l256 256v512A85.333 85.333 0 0 1 768 938.667H256a85.333 85.333 0 0 1-85.333-85.334V170.667A85.333 85.333 0 0 1 256 85.333m298.667 64V384h234.666L554.667 149.333m-213.334 320v85.334H384v256h-42.667v42.666H512v-42.666h-42.667v-85.334h85.334a128 128 0 0 0 128-128 128 128 0 0 0-128-128H341.333m213.334 85.334a42.667 42.667 0 0 1 42.666 42.666A42.667 42.667 0 0 1 554.667 640h-85.334v-85.333h85.334z" fill="#D14524"/>
    </symbol>
    <symbol id=".potm" viewBox="0 0 1024 1024">
        <path d="M256 85.333h341.333l256 256v512A85.333 85.333 0 0 1 768 938.667H256a85.333 85.333 0 0 1-85.333-85.334V170.667A85.333 85.333 0 0 1 256 85.333m298.667 64V384h234.666L554.667 149.333m-213.334 320v85.334H384v256h-42.667v42.666H512v-42.666h-42.667v-85.334h85.334a128 128 0 0 0 128-128 128 128 0 0 0-128-128H341.333m213.334 85.334a42.667 42.667 0 0 1 42.666 42.666A42.667 42.667 0 0 1 554.667 640h-85.334v-85.333h85.334z" fill="#D14524"/>
    </symbol>
    <symbol id=".pot" viewBox="0 0 1024 1024">
        <path d="M256 85.333h341.333l256 256v512A85.333 85.333 0 0 1 768 938.667H256a85.333 85.333 0 0 1-85.333-85.334V170.667A85.333 85.333 0 0 1 256 85.333m298.667 64V384h234.666L554.667 149.333m-213.334 320v85.334H384v256h-42.667v42.666H512v-42.666h-42.667v-85.334h85.334a128 128 0 0 0 128-128 128 128 0 0 0-128-128H341.333m213.334 85.334a42.667 42.667 0 0 1 42.666 42.666A42.667 42.667 0 0 1 554.667 640h-85.334v-85.333h85.334z" fill="#D14524"/>
    </symbol>
    <symbol id=".ppsx" viewBox="0 0 1024 1024">
        <path d="M256 85.333h341.333l256 256v512A85.333 85.333 0 0 1 768 938.667H256a85.333 85.333 0 0 1-85.333-85.334V170.667A85.333 85.333 0 0 1 256 85.333m298.667 64V384h234.666L554.667 149.333m-213.334 320v85.334H384v256h-42.667v42.666H512v-42.666h-42.667v-85.334h85.334a128 128 0 0 0 128-128 128 128 0 0 0-128-128H341.333m213.334 85.334a42.667 42.667 0 0 1 42.666 42.666A42.667 42.667 0 0 1 554.667 640h-85.334v-85.333h85.334z" fill="#D14524"/>
    </symbol>
    <symbol id=".ppsm" viewBox="0 0 1024 1024">
        <path d="M256 85.333h341.333l256 256v512A85.333 85.333 0 0 1 768 938.667H256a85.333 85.333 0 0 1-85.333-85.334V170.667A85.333 85.333 0 0 1 256 85.333m298.667 64V384h234.666L554.667 149.333m-213.334 320v85.334H384v256h-42.667v42.666H512v-42.666h-42.667v-85.334h85.334a128 128 0 0 0 128-128 128 128 0 0 0-128-128H341.333m213.334 85.334a42.667 42.667 0 0 1 42.666 42.666A42.667 42.667 0 0 1 554.667 640h-85.334v-85.333h85.334z" fill="#D14524"/>
    </symbol>
    <symbol id=".ppa" viewBox="0 0 1024 1024">
        <path d="M256 85.333h341.333l256 256v512A85.333 85.333 0 0 1 768 938.667H256a85.333 85.333 0 0 1-85.333-85.334V170.667A85.333 85.333 0 0 1 256 85.333m298.667 64V384h234.666L554.667 149.333m-213.334 320v85.334H384v256h-42.667v42.666H512v-42.666h-42.667v-85.334h85.334a128 128 0 0 0 128-128 128 128 0 0 0-128-128H341.333m213.334 85.334a42.667 42.667 0 0 1 42.666 42.666A42.667 42.667 0 0 1 554.667 640h-85.334v-85.333h85.334z" fill="#D14524"/>
    </symbol>
    <symbol id=".ppam" viewBox="0 0 1024 1024">
        <path d="M256 85.333h341.333l256 256v512A85.333 85.333 0 0 1 768 938.667H256a85.333 85.333 0 0 1-85.333-85.334V170.667A85.333 85.333 0 0 1 256 85.333m298.667 64V384h234.666L554.667 149.333m-213.334 320v85.334H384v256h-42.667v42.666H512v-42.666h-42.667v-85.334h85.334a128 128 0 0 0 128-128 128 128 0 0 0-128-128H341.333m213.334 85.334a42.667 42.667 0 0 1 42.666 42.666A42.667 42.667 0 0 1 554.667 640h-85.334v-85.333h85.334z" fill="#D14524"/>
    </symbol>

    <symbol id=".zip" viewBox="0 0 1024 1024">
        <path d="M597.333 725.333H512V640h-85.333v-85.333H512V640h85.333m0-256H512v85.333h85.333v85.334H512v-85.334h-85.333V384H512v-85.333h-85.333v-85.334H512v85.334h85.333M810.667 128H213.333A85.038 85.038 0 0 0 128 213.333v597.334A85.333 85.333 0 0 0 213.333 896h597.334A85.333 85.333 0 0 0 896 810.667V213.333A85.333 85.333 0 0 0 810.667 128z" fill="#17abe3"/>
    </symbol>

    <symbol id=".xml" viewBox="0 0 1024 1024">
        <path d="M554.667 384h234.666L554.667 149.333V384M256 85.333h341.333l256 256v512A85.333 85.333 0 0 1 768 938.667H256a85.333 85.333 0 0 1-85.333-85.334V170.667A85.038 85.038 0 0 1 256 85.333m5.12 576l159.573 159.574 60.587-60.16-99.413-99.414 99.413-99.413-60.587-60.16L261.12 661.333m476.16 0L577.707 501.76l-60.587 60.16 99.413 99.413-99.413 99.414 60.587 60.16L737.28 661.333z" fill="#8BC34A"/>
    </symbol>

    <symbol id=".ini" viewBox="0 0 1024 1024">
        <path d="M512.085 661.333A149.333 149.333 0 0 1 362.752 512a149.333 149.333 0 0 1 149.333-149.333A149.333 149.333 0 0 1 661.42 512a149.333 149.333 0 0 1-149.334 149.333M829.1 553.387c1.706-13.654 2.986-27.307 2.986-41.387s-1.28-28.16-2.986-42.667l90.026-69.546c8.107-6.4 10.24-17.92 5.12-27.307l-85.333-147.627c-5.12-9.386-16.64-13.226-26.027-9.386l-106.24 42.666c-22.186-16.64-45.226-31.146-72.106-41.813l-15.787-113.067a21.59 21.59 0 0 0-21.333-17.92H426.752c-10.667 0-19.627 7.68-21.333 17.92L389.632 216.32c-26.88 10.667-49.92 25.173-72.107 41.813l-106.24-42.666c-9.386-3.84-20.906 0-26.026 9.386L99.925 372.48c-5.546 9.387-2.986 20.907 5.12 27.307l90.027 69.546c-1.707 14.507-2.987 28.587-2.987 42.667s1.28 27.733 2.987 41.387l-90.027 70.826c-8.106 6.4-10.666 17.92-5.12 27.307l85.334 147.627c5.12 9.386 16.64 12.8 26.026 9.386l106.24-43.093c22.187 17.067 45.227 31.573 72.107 42.24l15.787 113.067c1.706 10.24 10.666 17.92 21.333 17.92h170.667c10.666 0 19.626-7.68 21.333-17.92l15.787-113.067c26.88-11.093 49.92-25.173 72.106-42.24l106.24 43.093c9.387 3.414 20.907 0 26.027-9.386l85.333-147.627c5.12-9.387 2.987-20.907-5.12-27.307z" fill="#42A5F5"/>
    </symbol>
    <symbol id=".cfg" viewBox="0 0 1024 1024">
        <path d="M512.085 661.333A149.333 149.333 0 0 1 362.752 512a149.333 149.333 0 0 1 149.333-149.333A149.333 149.333 0 0 1 661.42 512a149.333 149.333 0 0 1-149.334 149.333M829.1 553.387c1.706-13.654 2.986-27.307 2.986-41.387s-1.28-28.16-2.986-42.667l90.026-69.546c8.107-6.4 10.24-17.92 5.12-27.307l-85.333-147.627c-5.12-9.386-16.64-13.226-26.027-9.386l-106.24 42.666c-22.186-16.64-45.226-31.146-72.106-41.813l-15.787-113.067a21.59 21.59 0 0 0-21.333-17.92H426.752c-10.667 0-19.627 7.68-21.333 17.92L389.632 216.32c-26.88 10.667-49.92 25.173-72.107 41.813l-106.24-42.666c-9.386-3.84-20.906 0-26.026 9.386L99.925 372.48c-5.546 9.387-2.986 20.907 5.12 27.307l90.027 69.546c-1.707 14.507-2.987 28.587-2.987 42.667s1.28 27.733 2.987 41.387l-90.027 70.826c-8.106 6.4-10.666 17.92-5.12 27.307l85.334 147.627c5.12 9.386 16.64 12.8 26.026 9.386l106.24-43.093c22.187 17.067 45.227 31.573 72.107 42.24l15.787 113.067c1.706 10.24 10.666 17.92 21.333 17.92h170.667c10.666 0 19.626-7.68 21.333-17.92l15.787-113.067c26.88-11.093 49.92-25.173 72.106-42.24l106.24 43.093c9.387 3.414 20.907 0 26.027-9.386l85.333-147.627c5.12-9.387 2.987-20.907-5.12-27.307z" fill="#42A5F5"/>
    </symbol>
    <symbol id=".config" viewBox="0 0 1024 1024">
        <path d="M512.085 661.333A149.333 149.333 0 0 1 362.752 512a149.333 149.333 0 0 1 149.333-149.333A149.333 149.333 0 0 1 661.42 512a149.333 149.333 0 0 1-149.334 149.333M829.1 553.387c1.706-13.654 2.986-27.307 2.986-41.387s-1.28-28.16-2.986-42.667l90.026-69.546c8.107-6.4 10.24-17.92 5.12-27.307l-85.333-147.627c-5.12-9.386-16.64-13.226-26.027-9.386l-106.24 42.666c-22.186-16.64-45.226-31.146-72.106-41.813l-15.787-113.067a21.59 21.59 0 0 0-21.333-17.92H426.752c-10.667 0-19.627 7.68-21.333 17.92L389.632 216.32c-26.88 10.667-49.92 25.173-72.107 41.813l-106.24-42.666c-9.386-3.84-20.906 0-26.026 9.386L99.925 372.48c-5.546 9.387-2.986 20.907 5.12 27.307l90.027 69.546c-1.707 14.507-2.987 28.587-2.987 42.667s1.28 27.733 2.987 41.387l-90.027 70.826c-8.106 6.4-10.666 17.92-5.12 27.307l85.334 147.627c5.12 9.386 16.64 12.8 26.026 9.386l106.24-43.093c22.187 17.067 45.227 31.573 72.107 42.24l15.787 113.067c1.706 10.24 10.666 17.92 21.333 17.92h170.667c10.666 0 19.626-7.68 21.333-17.92l15.787-113.067c26.88-11.093 49.92-25.173 72.106-42.24l106.24 43.093c9.387 3.414 20.907 0 26.027-9.386l85.333-147.627c5.12-9.387 2.987-20.907-5.12-27.307z" fill="#42A5F5"/>
    </symbol>
    <symbol id=".conf" viewBox="0 0 1024 1024">
        <path d="M512.085 661.333A149.333 149.333 0 0 1 362.752 512a149.333 149.333 0 0 1 149.333-149.333A149.333 149.333 0 0 1 661.42 512a149.333 149.333 0 0 1-149.334 149.333M829.1 553.387c1.706-13.654 2.986-27.307 2.986-41.387s-1.28-28.16-2.986-42.667l90.026-69.546c8.107-6.4 10.24-17.92 5.12-27.307l-85.333-147.627c-5.12-9.386-16.64-13.226-26.027-9.386l-106.24 42.666c-22.186-16.64-45.226-31.146-72.106-41.813l-15.787-113.067a21.59 21.59 0 0 0-21.333-17.92H426.752c-10.667 0-19.627 7.68-21.333 17.92L389.632 216.32c-26.88 10.667-49.92 25.173-72.107 41.813l-106.24-42.666c-9.386-3.84-20.906 0-26.026 9.386L99.925 372.48c-5.546 9.387-2.986 20.907 5.12 27.307l90.027 69.546c-1.707 14.507-2.987 28.587-2.987 42.667s1.28 27.733 2.987 41.387l-90.027 70.826c-8.106 6.4-10.666 17.92-5.12 27.307l85.334 147.627c5.12 9.386 16.64 12.8 26.026 9.386l106.24-43.093c22.187 17.067 45.227 31.573 72.107 42.24l15.787 113.067c1.706 10.24 10.666 17.92 21.333 17.92h170.667c10.666 0 19.626-7.68 21.333-17.92l15.787-113.067c26.88-11.093 49.92-25.173 72.106-42.24l106.24 43.093c9.387 3.414 20.907 0 26.027-9.386l85.333-147.627c5.12-9.387 2.987-20.907-5.12-27.307z" fill="#42A5F5"/>
    </symbol>
    <symbol id=".properties" viewBox="0 0 1024 1024">
        <path d="M512.085 661.333A149.333 149.333 0 0 1 362.752 512a149.333 149.333 0 0 1 149.333-149.333A149.333 149.333 0 0 1 661.42 512a149.333 149.333 0 0 1-149.334 149.333M829.1 553.387c1.706-13.654 2.986-27.307 2.986-41.387s-1.28-28.16-2.986-42.667l90.026-69.546c8.107-6.4 10.24-17.92 5.12-27.307l-85.333-147.627c-5.12-9.386-16.64-13.226-26.027-9.386l-106.24 42.666c-22.186-16.64-45.226-31.146-72.106-41.813l-15.787-113.067a21.59 21.59 0 0 0-21.333-17.92H426.752c-10.667 0-19.627 7.68-21.333 17.92L389.632 216.32c-26.88 10.667-49.92 25.173-72.107 41.813l-106.24-42.666c-9.386-3.84-20.906 0-26.026 9.386L99.925 372.48c-5.546 9.387-2.986 20.907 5.12 27.307l90.027 69.546c-1.707 14.507-2.987 28.587-2.987 42.667s1.28 27.733 2.987 41.387l-90.027 70.826c-8.106 6.4-10.666 17.92-5.12 27.307l85.334 147.627c5.12 9.386 16.64 12.8 26.026 9.386l106.24-43.093c22.187 17.067 45.227 31.573 72.107 42.24l15.787 113.067c1.706 10.24 10.666 17.92 21.333 17.92h170.667c10.666 0 19.626-7.68 21.333-17.92l15.787-113.067c26.88-11.093 49.92-25.173 72.106-42.24l106.24 43.093c9.387 3.414 20.907 0 26.027-9.386l85.333-147.627c5.12-9.387 2.987-20.907-5.12-27.307z" fill="#42A5F5"/>
    </symbol>

    <symbol id=".ipa" viewBox="0 0 1024 1024">
        <path d="M799.275 831.957c-35.414 52.907-72.96 104.534-130.134 105.387-57.173 1.28-75.52-33.707-140.373-33.707-65.28 0-85.333 32.854-139.52 34.987-55.893 2.133-98.133-56.32-133.973-107.947-72.96-105.386-128.854-299.52-53.76-430.08 37.12-64.853 103.68-105.813 175.786-107.093 54.614-.853 106.667 37.12 140.374 37.12 33.28 0 96.426-45.653 162.56-38.827 27.733 1.28 105.386 11.094 155.306 84.48-3.84 2.56-92.586 54.614-91.733 162.56 1.28 128.854 113.067 171.947 114.347 172.374-1.28 2.986-17.92 61.44-58.88 120.746M555.648 149.291c31.147-35.414 82.773-62.294 125.44-64 5.547 49.92-14.507 100.266-44.373 136.106-29.44 36.267-78.08 64.427-125.867 60.587-6.4-49.067 17.493-100.267 44.8-132.693z" fill="#78909C"/>
    </symbol>
    <symbol id=".plist" viewBox="0 0 1024 1024">
        <path d="M799.275 831.957c-35.414 52.907-72.96 104.534-130.134 105.387-57.173 1.28-75.52-33.707-140.373-33.707-65.28 0-85.333 32.854-139.52 34.987-55.893 2.133-98.133-56.32-133.973-107.947-72.96-105.386-128.854-299.52-53.76-430.08 37.12-64.853 103.68-105.813 175.786-107.093 54.614-.853 106.667 37.12 140.374 37.12 33.28 0 96.426-45.653 162.56-38.827 27.733 1.28 105.386 11.094 155.306 84.48-3.84 2.56-92.586 54.614-91.733 162.56 1.28 128.854 113.067 171.947 114.347 172.374-1.28 2.986-17.92 61.44-58.88 120.746M555.648 149.291c31.147-35.414 82.773-62.294 125.44-64 5.547 49.92-14.507 100.266-44.373 136.106-29.44 36.267-78.08 64.427-125.867 60.587-6.4-49.067 17.493-100.267 44.8-132.693z" fill="#78909C"/>
    </symbol>
    <symbol id=".applescript" viewBox="0 0 1024 1024">
        <path d="M799.275 831.957c-35.414 52.907-72.96 104.534-130.134 105.387-57.173 1.28-75.52-33.707-140.373-33.707-65.28 0-85.333 32.854-139.52 34.987-55.893 2.133-98.133-56.32-133.973-107.947-72.96-105.386-128.854-299.52-53.76-430.08 37.12-64.853 103.68-105.813 175.786-107.093 54.614-.853 106.667 37.12 140.374 37.12 33.28 0 96.426-45.653 162.56-38.827 27.733 1.28 105.386 11.094 155.306 84.48-3.84 2.56-92.586 54.614-91.733 162.56 1.28 128.854 113.067 171.947 114.347 172.374-1.28 2.986-17.92 61.44-58.88 120.746M555.648 149.291c31.147-35.414 82.773-62.294 125.44-64 5.547 49.92-14.507 100.266-44.373 136.106-29.44 36.267-78.08 64.427-125.867 60.587-6.4-49.067 17.493-100.267 44.8-132.693z" fill="#78909C"/>
    </symbol>

    <symbol id=".ps1" viewBox="0 0 1024 1024">
        <path d="M929.408 172.33c20.821 0 33.963 16.982 28.459 37.76L823.68 813.868c-4.693 20.821-25.045 37.802-45.867 37.802H94.635c-20.779 0-33.963-16.981-28.416-37.802l134.144-603.734c4.693-20.821 25.045-37.802 45.866-37.802h683.179M674.645 681.813H504.832a35.499 35.499 0 0 0-35.285 35.67c0 19.925 15.744 36.053 35.242 36.053h169.856a36.053 36.053 0 0 0 36.096-36.053 35.968 35.968 0 0 0-36.096-35.67m-426.709 11.862a36.992 36.992 0 0 0-8.917 51.797 37.717 37.717 0 0 0 52.65 9.813C603.776 535.723 605.867 533.205 608 531.925a36.01 36.01 0 0 0 11.904-25.472 38.528 38.528 0 0 0-6.827-23.808L404.181 258.56a36.821 36.821 0 0 0-53.077-1.28 37.035 37.035 0 0 0-2.133 52.65l176.213 188.502z" fill="#03A9F4"/>
    </symbol>
    <symbol id=".bat" viewBox="0 0 1024 1024">
        <path d="M924 75H100C44.8 75 0 119.8 0 175v674c0 55.2 44.8 100 100 100h824c55.2 0 100-44.8 100-100V175c0-55.2-44.8-100-100-100zm0 819H100c-24.8 0-45-20.2-45-45V332h914v517c0 24.8-20.2 45-45 45zM670.5 206c0 22.3-18.1 40.4-40.4 40.4-22.3 0-40.4-18.1-40.4-40.4s18.1-40.4 40.4-40.4c22.3 0 40.4 18.1 40.4 40.4zm249.2 0c0 22.3-18.1 40.4-40.4 40.4-22.3 0-40.4-18.1-40.4-40.4s18.1-40.4 40.4-40.4c22.3 0 40.4 18.1 40.4 40.4zm-124.6 0c0 22.3-18.1 40.4-40.4 40.4-22.3 0-40.4-18.1-40.4-40.4s18.1-40.4 40.4-40.4c22.3 0 40.4 18.1 40.4 40.4zM186 783.5c11.9 10.2 31.3 10.2 43.2 0l152.5-130.8c6-5.1 8.9-11.9 8.9-18.6 0-6.7-3-13.5-8.9-18.6L229.2 484.7c-11.9-10.2-31.3-10.2-43.2 0-11.9 10.2-11.9 26.8 0 37l131 112.4-131 112.3c-11.9 10.2-11.9 26.8 0 37.1zm513.2 5H464.6c-15.2 0-27.5-12.3-27.5-27.5s12.3-27.5 27.5-27.5h234.6c15.2 0 27.5 12.3 27.5 27.5s-12.3 27.5-27.5 27.5z" fill="#5e5d5d"/>
    </symbol>
    <symbol id=".sh" viewBox="0 0 1024 1024">
        <path d="M895.488 128H128a61.504 61.504 0 0 0-64 58.624v586.56a61.504 61.504 0 0 0 64 58.688h768a61.504 61.504 0 0 0 64-58.688V186.368A61.504 61.504 0 0 0 895.488 128zM192 538.304l128-117.312L192 303.68l64-58.624 192 176-192 175.872zm512 58.688H448v-58.688h256v58.624z" fill="#AA759F"/>
    </symbol>
    <symbol id=".bash" viewBox="0 0 1024 1024">
        <path d="M895.488 128H128a61.504 61.504 0 0 0-64 58.624v586.56a61.504 61.504 0 0 0 64 58.688h768a61.504 61.504 0 0 0 64-58.688V186.368A61.504 61.504 0 0 0 895.488 128zM192 538.304l128-117.312L192 303.68l64-58.624 192 176-192 175.872zm512 58.688H448v-58.688h256v58.624z" fill="#AA759F"/>
    </symbol>

    <symbol id=".html" viewBox="0 0 1024 1024">
        <path d="M182.938 512l180-180c11.25-11.25 11.25-28.125 0-39.375s-28.125-11.25-39.375 0L123.875 492.313c-5.625 5.625-8.438 11.25-8.438 19.687 0 8.438 2.813 14.063 8.438 19.688l199.688 199.687c11.25 11.25 28.125 11.25 39.375 0s11.25-28.125 0-39.375l-180-180zM590.75 213.875c-14.063-2.813-30.938 5.625-33.75 19.688L410.75 776.375c-2.813 14.063 5.625 30.938 19.688 33.75 14.062 2.813 30.937-5.625 33.75-19.688l146.25-542.812c5.625-14.063-2.813-30.938-19.688-33.75zm309.375 278.438L700.437 292.625c-11.25-11.25-28.125-11.25-39.375 0s-11.25 28.125 0 39.375l180 180-180 180c-11.25 11.25-11.25 28.125 0 39.375s28.125 11.25 39.375 0l199.688-199.688c5.625-5.625 8.438-14.062 8.438-19.687 0-8.438-2.813-14.063-8.438-19.688z" fill="#515151"/>
    </symbol>
    <symbol id=".htm" viewBox="0 0 1024 1024">
        <path d="M182.938 512l180-180c11.25-11.25 11.25-28.125 0-39.375s-28.125-11.25-39.375 0L123.875 492.313c-5.625 5.625-8.438 11.25-8.438 19.687 0 8.438 2.813 14.063 8.438 19.688l199.688 199.687c11.25 11.25 28.125 11.25 39.375 0s11.25-28.125 0-39.375l-180-180zM590.75 213.875c-14.063-2.813-30.938 5.625-33.75 19.688L410.75 776.375c-2.813 14.063 5.625 30.938 19.688 33.75 14.062 2.813 30.937-5.625 33.75-19.688l146.25-542.812c5.625-14.063-2.813-30.938-19.688-33.75zm309.375 278.438L700.437 292.625c-11.25-11.25-28.125-11.25-39.375 0s-11.25 28.125 0 39.375l180 180-180 180c-11.25 11.25-11.25 28.125 0 39.375s28.125 11.25 39.375 0l199.688-199.688c5.625-5.625 8.438-14.062 8.438-19.687 0-8.438-2.813-14.063-8.438-19.688z" fill="#515151"/>
    </symbol>

    <symbol id=".dll" viewBox="0 0 1024 1024">
        <path d="M381.308 726.894h-51.685v149.328h48.315c24.855 0 44.142-6.742 57.864-20.223 13.72-13.481 20.58-32.684 20.58-57.606 0-23.152-6.52-40.855-19.56-53.114-13.04-12.258-31.545-18.385-55.514-18.385zm24.616 105.564c-5.719 7.115-14.707 10.671-26.965 10.671h-8.989v-83.654h11.747c11.032 0 19.251 3.305 24.667 9.909 5.413 6.607 8.12 16.75 8.12 30.438 0 14.64-2.861 25.52-8.58 32.636zm117.562-105.564h-40.344v149.328h97.85v-32.584h-57.506zM417.677 320.908c-45.116 0-81.823 36.707-81.823 81.827 0 45.113 36.707 81.82 81.823 81.82s81.823-36.704 81.823-81.82c0-45.12-36.707-81.827-81.823-81.827zm0 115.37c-18.498 0-33.55-15.048-33.55-33.546 0-18.502 15.052-33.554 33.55-33.554 18.498 0 33.55 15.052 33.55 33.554 0 18.501-15.052 33.546-33.55 33.546z" class="selected" fill="#515151"/>
        <path d="M701.801 359.498a122.228 122.228 0 0 0-5.313-.676 29.373 29.373 0 0 0-27.506-18.871c-2.102 0-4.216.222-6.285.666-.87.186-1.732.421-2.578.705l-35.649 11.872a23.953 23.953 0 0 0-2.452.968 29.852 29.852 0 0 0-5.033 2.961l-5.909-27.503a24.082 24.082 0 0 0-.708-2.59c-4.534-13.556-17.089-22.663-31.233-22.663-4.895 0-9.658 1.062-14.16 3.16l-.206.093a177.543 177.543 0 0 0-18.192-23.496l.16-.196c6.048-7.335 8.7-16.857 7.27-26.12-1.428-9.261-6.822-17.542-14.8-22.717a23.236 23.236 0 0 0-2.333-1.335l-55.286-27.664a24.854 24.854 0 0 0-2.459-1.065 33.53 33.53 0 0 0-11.624-2.083c-15.213 0-28.366 10.415-31.986 25.305l-.048.2a173.97 173.97 0 0 0-32.752-.264l-.052-.222c-3.446-15.21-16.65-25.826-32.111-25.826-3.782 0-7.53.64-11.142 1.908a24.407 24.407 0 0 0-2.474 1.023l-55.701 26.805a24.764 24.764 0 0 0-2.36 1.303c-8.048 5.047-13.57 13.237-15.148 22.464-1.576 9.23.914 18.788 6.846 26.235l.154.196a177.582 177.582 0 0 0-18.588 23.174l-.235-.112a33.695 33.695 0 0 0-14.63-3.392c-13.92 0-26.406 8.917-31.07 22.19-.295.842-.546 1.698-.746 2.567l-13.922 60.233a23.68 23.68 0 0 0-.457 2.639c-1.104 9.442 1.831 18.874 8.049 25.88 6.22 7.01 15.238 11.042 24.751 11.068h.168a172.191 172.191 0 0 0 6.478 29.028l-.167.08c-8.59 4.075-15.033 11.567-17.675 20.559-2.642 8.988-1.274 18.775 3.746 26.85.477.762.991 1.5 1.548 2.204l38.29 48.528a23.408 23.408 0 0 0 1.755 1.988c6.333 6.427 14.716 9.967 23.605 9.967 10.006 0 19.4-4.534 25.759-12.432l.141-.18a176.214 176.214 0 0 0 26.686 13.085l-.058.245c-2.198 9.256-.377 18.971 4.991 26.656s13.861 12.738 23.307 13.861a23.79 23.79 0 0 0 2.665.17l61.815.48h.187c.83 0 1.66-.045 2.484-.128 9.452-.979 18.02-5.893 23.506-13.485 5.49-7.591 7.466-17.278 5.423-26.585l-.045-.206a176.648 176.648 0 0 0 26.882-12.658l.164.206c6.369 8.168 15.875 12.85 26.08 12.85 8.696 0 16.947-3.407 23.24-9.59a23.564 23.564 0 0 0 1.792-1.966l12.007-14.746 12.351 19.78c.477.759.995 1.496 1.552 2.2 5.68 7.174 14.128 11.284 23.184 11.284a29.344 29.344 0 0 0 14.388-3.746c1.49.997 3.003 1.956 4.538 2.883a29.476 29.476 0 0 0 3.518 16.181 29.633 29.633 0 0 0 19.325 14.608c.866.203 1.744.354 2.626.46l37.315 4.406c.885.103 1.78.16 2.671.167h.2a29.656 29.656 0 0 0 22.054-9.777 29.492 29.492 0 0 0 7.132-14.88 121.951 121.951 0 0 0 5.033-1.72 29.231 29.231 0 0 0 20.027 7.866 29.814 29.814 0 0 0 18.36-6.398c.699-.55 1.365-1.139 1.996-1.76l26.775-26.367a23.606 23.606 0 0 0 1.793-1.97 29.64 29.64 0 0 0 6.307-23.386 29.485 29.485 0 0 0-7.163-14.965 118.841 118.841 0 0 0 1.802-5.008c14.289-2.053 25.022-14.067 25.147-29.028a23.728 23.728 0 0 0-.125-2.662l-3.824-37.382a24.713 24.713 0 0 0-.412-2.617c-2.96-13.77-14.81-23.39-28.812-23.39-.538 0-1.075.016-1.61.045a111.86 111.86 0 0 0-2.809-4.58 29.476 29.476 0 0 0 3.981-16.123 29.617 29.617 0 0 0-10.942-21.623 23.258 23.258 0 0 0-2.127-1.545l-31.558-20.397a24.58 24.58 0 0 0-2.317-1.322 29.93 29.93 0 0 0-13.314-3.154c-9.59-.004-18.45 4.734-23.918 12.32zm-132.787 21.054a24.066 24.066 0 0 0-17.172 6.842 24.13 24.13 0 0 0-7.296 16.982c-.245 19.2-4.654 37.576-13.105 54.62a24.137 24.137 0 0 0 10.936 32.362l3.23 1.597-13.731 16.863-2.237-2.874a24.143 24.143 0 0 0-33.907-4.187 125.41 125.41 0 0 1-50.81 23.921 24.133 24.133 0 0 0-18.41 28.774l.775 3.528-21.746-.17.837-3.518a24.127 24.127 0 0 0-17.945-29.077 127.113 127.113 0 0 1-50.42-24.722 24.146 24.146 0 0 0-33.962 3.623l-2.278 2.832-13.475-17.076 3.244-1.538a24.137 24.137 0 0 0 11.467-32.179 125.755 125.755 0 0 1-12.246-54.095 24.137 24.137 0 0 0-24.06-24.96l-3.62-.01 4.898-21.189 3.222 1.567a24.127 24.127 0 0 0 32.269-11.148c8.216-16.899 20.384-32.07 35.188-43.87a24.146 24.146 0 0 0 3.823-33.92l-2.269-2.845 19.596-9.43.798 3.527a24.15 24.15 0 0 0 28.88 18.209 126.994 126.994 0 0 1 58.38.46 24.137 24.137 0 0 0 29.17-17.726l.855-3.508 19.445 9.729-2.292 2.78a24.13 24.13 0 0 0 3.27 33.982 128.146 128.146 0 0 1 34.429 44.466 24.146 24.146 0 0 0 32.076 11.672l3.266-1.525 4.57 21.263-3.643-.032zm163.95 46.39a66.91 66.91 0 0 1 15.653 25.524 24.124 24.124 0 0 0 12.126 13.896 24.153 24.153 0 0 0-9.095 16.085A66.759 66.759 0 0 1 741.52 510.6a24.12 24.12 0 0 0-3.26 18.173 24.143 24.143 0 0 0-18.215 2.961 67.042 67.042 0 0 1-28.346 9.69 24.143 24.143 0 0 0-16.213 8.831 24.153 24.153 0 0 0-13.7-12.345 67.01 67.01 0 0 1-24.884-15.66 24.063 24.063 0 0 0-17.433-7.534 24.12 24.12 0 0 0 1.082-18.395 68.374 68.374 0 0 1-3.267-29.82 24.127 24.127 0 0 0-5.081-17.717 24.124 24.124 0 0 0 15.019-10.658 68.027 68.027 0 0 1 9.446-11.85 67.763 67.763 0 0 1 12.75-10.002 24.066 24.066 0 0 0 10.9-14.859 24.21 24.21 0 0 0 17.633 5.372 67.982 67.982 0 0 1 29.752 3.784 24.137 24.137 0 0 0 18.405-.775 24.137 24.137 0 0 0 6.855 17.146z" class="selected" fill="#515151"/>
        <path d="M911.237 169.674L748.636 7.07A24.12 24.12 0 0 0 731.57 0H129.83a24.137 24.137 0 0 0-24.137 24.137v975.726A24.137 24.137 0 0 0 129.83 1024h764.34a24.137 24.137 0 0 0 24.137-24.137V186.737a24.12 24.12 0 0 0-7.07-17.063zm-155.53-87.268l80.191 80.195h-80.192V82.406zm-601.74-34.133h553.47v33.029h-553.47V48.273zm716.067 927.454H153.966V129.575h553.47v57.166a24.137 24.137 0 0 0 24.137 24.136h138.46v764.85z" class="selected" fill="#515151"/>
        <path d="M642.647 432.285a58.816 58.816 0 0 0-17.34 41.865c0 15.812 6.16 30.68 17.34 41.857a58.8 58.8 0 0 0 41.86 17.343 58.797 58.797 0 0 0 41.856-17.34 58.8 58.8 0 0 0 17.343-41.86 58.81 58.81 0 0 0-17.34-41.865c-11.183-11.18-26.048-17.337-41.86-17.337s-30.676 6.157-41.859 17.337zm52.785 41.862c0 1.687-.415 4.94-3.202 7.724a10.887 10.887 0 0 1-7.724 3.202c-1.69 0-4.94-.418-7.723-3.202s-3.202-6.034-3.202-7.724c0-1.69.415-4.943 3.198-7.723a10.88 10.88 0 0 1 7.727-3.2c1.69 0 4.947.416 7.727 3.196 2.784 2.784 3.2 6.038 3.2 7.727zm-50.194 252.747h-40.344v149.328h97.85v-32.584h-57.506z" class="selected" fill="#515151"/>
    </symbol>
    <symbol id=".lib" viewBox="0 0 1307 1024">
        <path d="M753.109 52.495999999999995l189.252-50.71q51.36-13.762 65.122 37.599l214.29 799.738q13.761 51.36-37.6 65.123l-189.25 50.71q-51.36 13.761-65.123-37.6L715.511 117.619q-13.762-51.36 37.599-65.122zM249.1 22.533H53.171A53.172 53.172 0 0 0 0 75.705v827.95a53.172 53.172 0 0 0 53.172 53.173H249.1a53.172 53.172 0 0 0 53.173-53.173V75.705a53.172 53.172 0 0 0-53.173-53.172zm-8.657 611.963a27.48 27.48 0 0 1-27.479 27.48H88.758a27.48 27.48 0 0 1-27.48-27.48v-14.839a27.48 27.48 0 0 1 27.48-27.48h124.756a27.48 27.48 0 0 1 27.48 27.48zm0-137.396a27.48 27.48 0 0 1-27.479 27.479H88.758a27.48 27.48 0 0 1-27.48-27.48v-14.838a27.48 27.48 0 0 1 27.48-27.48h124.756a27.48 27.48 0 0 1 27.48 27.48zm0-137.397a27.48 27.48 0 0 1-27.479 27.48H88.758a27.48 27.48 0 0 1-27.48-27.48v-14.838a27.48 27.48 0 0 1 27.48-27.48h124.756a27.48 27.48 0 0 1 27.48 27.48zm365.2-337.17H409.716a53.172 53.172 0 0 0-52.486 53.172v827.95a53.172 53.172 0 0 0 53.173 53.173h195.24a53.172 53.172 0 0 0 53.86-53.173V75.705a53.172 53.172 0 0 0-53.86-53.172zm-8.656 543.265a27.48 27.48 0 0 1-27.48 27.48H445.302a27.48 27.48 0 0 1-27.479-27.48v-14.839a27.48 27.48 0 0 1 27.48-27.48h124.755a27.48 27.48 0 0 1 27.48 27.48zm0-137.396a27.48 27.48 0 0 1-27.48 27.479H445.302a27.48 27.48 0 0 1-27.479-27.48v-14.838a27.48 27.48 0 0 1 27.48-27.48h124.755a27.48 27.48 0 0 1 27.48 27.48z" fill="#333"/>
    </symbol>

    <symbol id=".txt" viewBox="0 0 1024 1024">
        <path d="M886.624 297.376l-191.968-191.968c-2.944-2.944-6.432-5.312-10.336-6.912C680.48 96.864 676.288 96 672 96L224 96C171.072 96 128 139.072 128 192l0 640c0 52.928 43.072 96 96 96l576 0c52.928 0 96-43.072 96-96L896 320C896 311.52 892.64 303.36 886.624 297.376zM704 205.248 818.752 320 704 320 704 205.248zM800 864 224 864c-17.632 0-32-14.336-32-32L192 192c0-17.632 14.368-32 32-32l416 0 0 192c0 17.664 14.304 32 32 32l160 0 0 448C832 849.664 817.664 864 800 864z" fill="#515151"/>
        <path d="M288 352l192 0c17.664 0 32-14.336 32-32s-14.336-32-32-32L288 288c-17.664 0-32 14.336-32 32S270.336 352 288 352z" fill="#515151"/>
        <path d="M608 480 288 480c-17.664 0-32 14.336-32 32s14.336 32 32 32l320 0c17.696 0 32-14.336 32-32S625.696 480 608 480z" fill="#515151"/>
        <path d="M608 672 288 672c-17.664 0-32 14.304-32 32s14.336 32 32 32l320 0c17.696 0 32-14.304 32-32S625.696 672 608 672z" fill="#515151"/>
    </symbol>

    <symbol id=".gitignore" viewBox="0 0 1024 1024">
        <path d="M110.933 451.84L357.547 204.8l72.106 72.533c-10.24 36.267 6.4 75.947 39.68 95.147v236.373c-25.6 14.507-42.666 42.24-42.666 73.814A85.333 85.333 0 0 0 512 768a85.333 85.333 0 0 0 85.333-85.333c0-31.574-17.066-59.307-42.666-73.814v-207.36l88.32 89.174C640 497.067 640 504.32 640 512a85.333 85.333 0 0 0 85.333 85.333A85.333 85.333 0 0 0 810.667 512a85.333 85.333 0 0 0-85.334-85.333c-7.68 0-14.933 0-21.333 2.986L594.347 320a84.48 84.48 0 0 0-49.067-99.84c-18.347-6.827-37.547-8.533-54.613-3.84l-72.534-72.107 33.707-33.28c33.28-33.706 87.04-33.706 120.32 0L913.067 451.84c33.706 33.28 33.706 87.04 0 120.32L572.16 913.067c-33.28 33.706-87.04 33.706-120.32 0L110.933 572.16c-33.706-33.28-33.706-87.04 0-120.32z" fill="#E64A19"/>
    </symbol>

    <symbol id=".mcpack" viewBox="0 0 1024 1024">
        <path d="M170.667 85.333h682.666a85.333 85.333 0 0 1 85.334 85.334v682.666a85.333 85.333 0 0 1-85.334 85.334H170.667a85.333 85.333 0 0 1-85.334-85.334V170.667a85.333 85.333 0 0 1 85.334-85.334M256 256v170.667h170.667V512h-85.334v256h85.334v-85.333h170.666V768h85.334V512h-85.334v-85.333H768V256H597.333v170.667H426.667V256H256z" fill="#2ebd38"/>
    </symbol>
    <symbol id=".mcaddon" viewBox="0 0 1024 1024">
        <path d="M1004.216 656.876L989.43 316.457a77.23 77.23 0 0 0-22.549-51.241L752.865 51.2a77.23 77.23 0 0 0-51.24-22.548l-340.42-14.787s-73.133-4.71-80.527 80.507c0 0-15.421 75.837 80.528 80.527h225.71a77.23 77.23 0 0 1 54.6 22.63l179.036 179.037a77.23 77.23 0 0 1 22.63 54.6v225.71c4.69 95.948 80.527 80.527 80.527 80.527 85.218-7.393 80.507-80.527 80.507-80.527" fill="#A5A5A4"/>
        <path d="M860.467 158.802l48.313 48.312 25.333-25.313a68.321 68.321 0 1 0-96.645-96.625l-25.313 25.314 48.312 48.312m-128.84 128.84l-48.312-48.313L20.01 902.636a68.321 68.321 0 1 0 96.645 96.624L779.94 335.954l-48.312-48.312" fill="#715C3A"/>
    </symbol>
    <symbol id=".mcworld" viewBox="0 0 1061 1024">
        <path d="M169.836 212.65l664.535 664.08-18.963 75.852L75.856 213.03l93.98-.38" fill="#D1D4D1"/>
        <path d="M777.387 415.363L615.293 253.27a66.37 66.37 0 0 1 0-93.866l20.366-20.366a71.414 71.414 0 0 1 100.712 0l155.23 155.23a71.225 71.225 0 0 1 0 100.73l-20.347 20.366a66.37 66.37 0 0 1-93.867 0" fill="#7D7D7D"/>
        <path d="M1052.804 876.2l-47.767.53c-9.387-.208-18.963-9.557-18.963-18.963V706.064h18.963V592.287h37.925V383.696c0-9.558-9.405-18.963-18.962-18.963H917.2c-2.047.113-4.057.303-6.181.303-.512 0-.986-.057-1.498-.076a70.864 70.864 0 0 1-17.92 30.037l-20.347 20.366a66.18 66.18 0 0 1-72.287 14.147l-1.346 1.138-1.176 142.676c0 9.558 9.406 18.963 18.963 18.963s18.963 9.406 18.963 18.963v113.777h37.926V876.73h-56.889v128.303c0 9.387 9.576 18.754 18.963 18.963h208.591c9.71.227 18.963-9.254 18.963-18.963v-109.34c0-9.387.266-19.266-9.12-19.494M627.22 265.215l-11.927-11.946a66.37 66.37 0 0 1 0-93.866l20.366-20.366a69.044 69.044 0 0 1 29.07-17.18c.076-1.271.019-2.542.152-3.812-.398.057-.797.075-1.176.17V17.295A17.294 17.294 0 0 0 646.411 0H455.113c-9.557 0-18.962 4.968-18.962 14.525s-9.406 23.4-18.963 23.4h-94.815v37.926H208.596a17.313 17.313 0 0 1-17.294-16.896l-1.138-42.06A17.313 17.313 0 0 0 172.87.002H17.3A17.294 17.294 0 0 0 .005 17.693l18.962 178.061a17.294 17.294 0 0 0 17.295 16.896h133.574l-.417-23.02h171.917v37.925h93.354c9.558 0 17.295 12.174 17.295 21.732v5.404c0 9.557 12.534 15.227 22.091 15.227H625.59c.493-1.593 1.08-3.148 1.63-4.703" fill="#715C3A"/>
    </symbol>

    <symbol id=".cer" viewBox="0 0 1024 1024">
        <path d="M170.667 106.667A85.038 85.038 0 0 0 85.333 192v426.667A85.333 85.333 0 0 0 170.667 704H512v213.333l128-128 128 128V704h85.333a85.333 85.333 0 0 0 85.334-85.333V192a85.333 85.333 0 0 0-85.334-85.333H170.667M512 192l128 85.333L768 192v149.333l128 64-128 64v149.334l-128-85.334-128 85.334V469.333l-128-64 128-64V192m-341.333 0H384v85.333H170.667V192m0 170.667h128V448h-128v-85.333m0 170.666H384v85.334H170.667z" fill="#FF5722"/>
    </symbol>
    <symbol id=".p12" viewBox="0 0 1024 1024">
        <path d="M170.667 106.667A85.038 85.038 0 0 0 85.333 192v426.667A85.333 85.333 0 0 0 170.667 704H512v213.333l128-128 128 128V704h85.333a85.333 85.333 0 0 0 85.334-85.333V192a85.333 85.333 0 0 0-85.334-85.333H170.667M512 192l128 85.333L768 192v149.333l128 64-128 64v149.334l-128-85.334-128 85.334V469.333l-128-64 128-64V192m-341.333 0H384v85.333H170.667V192m0 170.667h128V448h-128v-85.333m0 170.666H384v85.334H170.667z" fill="#FF5722"/>
    </symbol>
    <symbol id=".p7b" viewBox="0 0 1024 1024">
        <path d="M170.667 106.667A85.038 85.038 0 0 0 85.333 192v426.667A85.333 85.333 0 0 0 170.667 704H512v213.333l128-128 128 128V704h85.333a85.333 85.333 0 0 0 85.334-85.333V192a85.333 85.333 0 0 0-85.334-85.333H170.667M512 192l128 85.333L768 192v149.333l128 64-128 64v149.334l-128-85.334-128 85.334V469.333l-128-64 128-64V192m-341.333 0H384v85.333H170.667V192m0 170.667h128V448h-128v-85.333m0 170.666H384v85.334H170.667z" fill="#FF5722"/>
    </symbol>
    <symbol id=".pfx" viewBox="0 0 1024 1024">
        <path d="M170.667 106.667A85.038 85.038 0 0 0 85.333 192v426.667A85.333 85.333 0 0 0 170.667 704H512v213.333l128-128 128 128V704h85.333a85.333 85.333 0 0 0 85.334-85.333V192a85.333 85.333 0 0 0-85.334-85.333H170.667M512 192l128 85.333L768 192v149.333l128 64-128 64v149.334l-128-85.334-128 85.334V469.333l-128-64 128-64V192m-341.333 0H384v85.333H170.667V192m0 170.667h128V448h-128v-85.333m0 170.666H384v85.334H170.667z" fill="#FF5722"/>
    </symbol>
    <symbol id=".sst" viewBox="0 0 1024 1024">
        <path d="M170.667 106.667A85.038 85.038 0 0 0 85.333 192v426.667A85.333 85.333 0 0 0 170.667 704H512v213.333l128-128 128 128V704h85.333a85.333 85.333 0 0 0 85.334-85.333V192a85.333 85.333 0 0 0-85.334-85.333H170.667M512 192l128 85.333L768 192v149.333l128 64-128 64v149.334l-128-85.334-128 85.334V469.333l-128-64 128-64V192m-341.333 0H384v85.333H170.667V192m0 170.667h128V448h-128v-85.333m0 170.666H384v85.334H170.667z" fill="#FF5722"/>
    </symbol>
</svg>